<?xml version="1.0" encoding="utf-8" standalone="no"?>
<!DOCTYPE svg PUBLIC "-//W3C//DTD SVG 1.1//EN"
  "http://www.w3.org/Graphics/SVG/1.1/DTD/svg11.dtd">
<svg xmlns:xlink="http://www.w3.org/1999/xlink" width="864pt" height="324pt" viewBox="0 0 864 324" xmlns="http://www.w3.org/2000/svg" version="1.1">
 <metadata>
  <rdf:RDF xmlns:dc="http://purl.org/dc/elements/1.1/" xmlns:cc="http://creativecommons.org/ns#" xmlns:rdf="http://www.w3.org/1999/02/22-rdf-syntax-ns#">
   <cc:Work>
    <dc:type rdf:resource="http://purl.org/dc/dcmitype/StillImage"/>
    <dc:date>2025-06-11T16:27:38.129237</dc:date>
    <dc:format>image/svg+xml</dc:format>
    <dc:creator>
     <cc:Agent>
      <dc:title>Matplotlib v3.10.1, https://matplotlib.org/</dc:title>
     </cc:Agent>
    </dc:creator>
   </cc:Work>
  </rdf:RDF>
 </metadata>
 <defs>
  <style type="text/css">*{stroke-linejoin: round; stroke-linecap: butt}</style>
 </defs>
 <g id="figure_1">
  <g id="patch_1">
   <path d="M 0 324 
L 864 324 
L 864 0 
L 0 0 
z
" style="fill: #ffffff"/>
  </g>
  <g id="axes_1">
   <g id="patch_2">
    <path d="M 53.72 275.8 
L 423.555 275.8 
L 423.555 29.04 
L 53.72 29.04 
z
" style="fill: #ffffff"/>
   </g>
   <g id="PathCollection_1">
    <defs>
     <path id="mec528e5ed7" d="M 0 3.535534 
C 0.937635 3.535534 1.836992 3.163008 2.5 2.5 
C 3.163008 1.836992 3.535534 0.937635 3.535534 0 
C 3.535534 -0.937635 3.163008 -1.836992 2.5 -2.5 
C 1.836992 -3.163008 0.937635 -3.535534 0 -3.535534 
C -0.937635 -3.535534 -1.836992 -3.163008 -2.5 -2.5 
C -3.163008 -1.836992 -3.535534 -0.937635 -3.535534 0 
C -3.535534 0.937635 -3.163008 1.836992 -2.5 2.5 
C -1.836992 3.163008 -0.937635 3.535534 0 3.535534 
z
" style="stroke: #000000"/>
    </defs>
    <g clip-path="url(#p20aef270b8)">
     <use xlink:href="#mec528e5ed7" x="70.530682" y="40.256364" style="stroke: #000000"/>
     <use xlink:href="#mec528e5ed7" x="90.295214" y="264.583636" style="stroke: #000000"/>
     <use xlink:href="#mec528e5ed7" x="110.059745" y="91.253837" style="stroke: #000000"/>
     <use xlink:href="#mec528e5ed7" x="129.824277" y="177.304338" style="stroke: #000000"/>
     <use xlink:href="#mec528e5ed7" x="149.642958" y="161.757281" style="stroke: #000000"/>
     <use xlink:href="#mec528e5ed7" x="169.40749" y="161.866441" style="stroke: #000000"/>
     <use xlink:href="#mec528e5ed7" x="189.172021" y="191.833816" style="stroke: #000000"/>
     <use xlink:href="#mec528e5ed7" x="208.936553" y="73.866389" style="stroke: #000000"/>
     <use xlink:href="#mec528e5ed7" x="228.755234" y="250.887063" style="stroke: #000000"/>
     <use xlink:href="#mec528e5ed7" x="248.519766" y="239.433875" style="stroke: #000000"/>
     <use xlink:href="#mec528e5ed7" x="268.284298" y="102.648706" style="stroke: #000000"/>
     <use xlink:href="#mec528e5ed7" x="288.048829" y="255.734584" style="stroke: #000000"/>
     <use xlink:href="#mec528e5ed7" x="307.86751" y="173.29047" style="stroke: #000000"/>
     <use xlink:href="#mec528e5ed7" x="327.632042" y="178.643042" style="stroke: #000000"/>
     <use xlink:href="#mec528e5ed7" x="347.396574" y="153.262998" style="stroke: #000000"/>
     <use xlink:href="#mec528e5ed7" x="367.161105" y="161.199706" style="stroke: #000000"/>
     <use xlink:href="#mec528e5ed7" x="386.979786" y="169.136414" style="stroke: #000000"/>
     <use xlink:href="#mec528e5ed7" x="406.744318" y="99.107366" style="stroke: #000000"/>
    </g>
   </g>
   <g id="matplotlib.axis_1">
    <g id="xtick_1">
     <g id="line2d_1">
      <defs>
       <path id="mcf72ee93aa" d="M 0 0 
L 0 3.5 
" style="stroke: #000000; stroke-width: 0.8"/>
      </defs>
      <g>
       <use xlink:href="#mcf72ee93aa" x="90.295214" y="275.8" style="stroke: #000000; stroke-width: 0.8"/>
      </g>
     </g>
     <g id="text_1">
      <!-- 2006 -->
      <g transform="translate(76.948964 291.389375) scale(0.12 -0.12)">
       <defs>
        <path id="ArialMT-32" d="M 3222 541 
L 3222 0 
L 194 0 
Q 188 203 259 391 
Q 375 700 629 1000 
Q 884 1300 1366 1694 
Q 2113 2306 2375 2664 
Q 2638 3022 2638 3341 
Q 2638 3675 2398 3904 
Q 2159 4134 1775 4134 
Q 1369 4134 1125 3890 
Q 881 3647 878 3216 
L 300 3275 
Q 359 3922 746 4261 
Q 1134 4600 1788 4600 
Q 2447 4600 2831 4234 
Q 3216 3869 3216 3328 
Q 3216 3053 3103 2787 
Q 2991 2522 2730 2228 
Q 2469 1934 1863 1422 
Q 1356 997 1212 845 
Q 1069 694 975 541 
L 3222 541 
z
" transform="scale(0.015625)"/>
        <path id="ArialMT-30" d="M 266 2259 
Q 266 3072 433 3567 
Q 600 4063 929 4331 
Q 1259 4600 1759 4600 
Q 2128 4600 2406 4451 
Q 2684 4303 2865 4023 
Q 3047 3744 3150 3342 
Q 3253 2941 3253 2259 
Q 3253 1453 3087 958 
Q 2922 463 2592 192 
Q 2263 -78 1759 -78 
Q 1097 -78 719 397 
Q 266 969 266 2259 
z
M 844 2259 
Q 844 1131 1108 757 
Q 1372 384 1759 384 
Q 2147 384 2411 759 
Q 2675 1134 2675 2259 
Q 2675 3391 2411 3762 
Q 2147 4134 1753 4134 
Q 1366 4134 1134 3806 
Q 844 3388 844 2259 
z
" transform="scale(0.015625)"/>
        <path id="ArialMT-36" d="M 3184 3459 
L 2625 3416 
Q 2550 3747 2413 3897 
Q 2184 4138 1850 4138 
Q 1581 4138 1378 3988 
Q 1113 3794 959 3422 
Q 806 3050 800 2363 
Q 1003 2672 1297 2822 
Q 1591 2972 1913 2972 
Q 2475 2972 2870 2558 
Q 3266 2144 3266 1488 
Q 3266 1056 3080 686 
Q 2894 316 2569 119 
Q 2244 -78 1831 -78 
Q 1128 -78 684 439 
Q 241 956 241 2144 
Q 241 3472 731 4075 
Q 1159 4600 1884 4600 
Q 2425 4600 2770 4297 
Q 3116 3994 3184 3459 
z
M 888 1484 
Q 888 1194 1011 928 
Q 1134 663 1356 523 
Q 1578 384 1822 384 
Q 2178 384 2434 671 
Q 2691 959 2691 1453 
Q 2691 1928 2437 2201 
Q 2184 2475 1800 2475 
Q 1419 2475 1153 2201 
Q 888 1928 888 1484 
z
" transform="scale(0.015625)"/>
       </defs>
       <use xlink:href="#ArialMT-32"/>
       <use xlink:href="#ArialMT-30" transform="translate(55.615234 0)"/>
       <use xlink:href="#ArialMT-30" transform="translate(111.230469 0)"/>
       <use xlink:href="#ArialMT-36" transform="translate(166.845703 0)"/>
      </g>
     </g>
    </g>
    <g id="xtick_2">
     <g id="line2d_2">
      <g>
       <use xlink:href="#mcf72ee93aa" x="129.824277" y="275.8" style="stroke: #000000; stroke-width: 0.8"/>
      </g>
     </g>
     <g id="text_2">
      <!-- 2008 -->
      <g transform="translate(116.478027 291.389375) scale(0.12 -0.12)">
       <defs>
        <path id="ArialMT-38" d="M 1131 2484 
Q 781 2613 612 2850 
Q 444 3088 444 3419 
Q 444 3919 803 4259 
Q 1163 4600 1759 4600 
Q 2359 4600 2725 4251 
Q 3091 3903 3091 3403 
Q 3091 3084 2923 2848 
Q 2756 2613 2416 2484 
Q 2838 2347 3058 2040 
Q 3278 1734 3278 1309 
Q 3278 722 2862 322 
Q 2447 -78 1769 -78 
Q 1091 -78 675 323 
Q 259 725 259 1325 
Q 259 1772 486 2073 
Q 713 2375 1131 2484 
z
M 1019 3438 
Q 1019 3113 1228 2906 
Q 1438 2700 1772 2700 
Q 2097 2700 2305 2904 
Q 2513 3109 2513 3406 
Q 2513 3716 2298 3927 
Q 2084 4138 1766 4138 
Q 1444 4138 1231 3931 
Q 1019 3725 1019 3438 
z
M 838 1322 
Q 838 1081 952 856 
Q 1066 631 1291 507 
Q 1516 384 1775 384 
Q 2178 384 2440 643 
Q 2703 903 2703 1303 
Q 2703 1709 2433 1975 
Q 2163 2241 1756 2241 
Q 1359 2241 1098 1978 
Q 838 1716 838 1322 
z
" transform="scale(0.015625)"/>
       </defs>
       <use xlink:href="#ArialMT-32"/>
       <use xlink:href="#ArialMT-30" transform="translate(55.615234 0)"/>
       <use xlink:href="#ArialMT-30" transform="translate(111.230469 0)"/>
       <use xlink:href="#ArialMT-38" transform="translate(166.845703 0)"/>
      </g>
     </g>
    </g>
    <g id="xtick_3">
     <g id="line2d_3">
      <g>
       <use xlink:href="#mcf72ee93aa" x="169.40749" y="275.8" style="stroke: #000000; stroke-width: 0.8"/>
      </g>
     </g>
     <g id="text_3">
      <!-- 2010 -->
      <g transform="translate(156.06124 291.389375) scale(0.12 -0.12)">
       <defs>
        <path id="ArialMT-31" d="M 2384 0 
L 1822 0 
L 1822 3584 
Q 1619 3391 1289 3197 
Q 959 3003 697 2906 
L 697 3450 
Q 1169 3672 1522 3987 
Q 1875 4303 2022 4600 
L 2384 4600 
L 2384 0 
z
" transform="scale(0.015625)"/>
       </defs>
       <use xlink:href="#ArialMT-32"/>
       <use xlink:href="#ArialMT-30" transform="translate(55.615234 0)"/>
       <use xlink:href="#ArialMT-31" transform="translate(111.230469 0)"/>
       <use xlink:href="#ArialMT-30" transform="translate(166.845703 0)"/>
      </g>
     </g>
    </g>
    <g id="xtick_4">
     <g id="line2d_4">
      <g>
       <use xlink:href="#mcf72ee93aa" x="208.936553" y="275.8" style="stroke: #000000; stroke-width: 0.8"/>
      </g>
     </g>
     <g id="text_4">
      <!-- 2012 -->
      <g transform="translate(195.590303 291.389375) scale(0.12 -0.12)">
       <use xlink:href="#ArialMT-32"/>
       <use xlink:href="#ArialMT-30" transform="translate(55.615234 0)"/>
       <use xlink:href="#ArialMT-31" transform="translate(111.230469 0)"/>
       <use xlink:href="#ArialMT-32" transform="translate(166.845703 0)"/>
      </g>
     </g>
    </g>
    <g id="xtick_5">
     <g id="line2d_5">
      <g>
       <use xlink:href="#mcf72ee93aa" x="248.519766" y="275.8" style="stroke: #000000; stroke-width: 0.8"/>
      </g>
     </g>
     <g id="text_5">
      <!-- 2014 -->
      <g transform="translate(235.173516 291.389375) scale(0.12 -0.12)">
       <defs>
        <path id="ArialMT-34" d="M 2069 0 
L 2069 1097 
L 81 1097 
L 81 1613 
L 2172 4581 
L 2631 4581 
L 2631 1613 
L 3250 1613 
L 3250 1097 
L 2631 1097 
L 2631 0 
L 2069 0 
z
M 2069 1613 
L 2069 3678 
L 634 1613 
L 2069 1613 
z
" transform="scale(0.015625)"/>
       </defs>
       <use xlink:href="#ArialMT-32"/>
       <use xlink:href="#ArialMT-30" transform="translate(55.615234 0)"/>
       <use xlink:href="#ArialMT-31" transform="translate(111.230469 0)"/>
       <use xlink:href="#ArialMT-34" transform="translate(166.845703 0)"/>
      </g>
     </g>
    </g>
    <g id="xtick_6">
     <g id="line2d_6">
      <g>
       <use xlink:href="#mcf72ee93aa" x="288.048829" y="275.8" style="stroke: #000000; stroke-width: 0.8"/>
      </g>
     </g>
     <g id="text_6">
      <!-- 2016 -->
      <g transform="translate(274.702579 291.389375) scale(0.12 -0.12)">
       <use xlink:href="#ArialMT-32"/>
       <use xlink:href="#ArialMT-30" transform="translate(55.615234 0)"/>
       <use xlink:href="#ArialMT-31" transform="translate(111.230469 0)"/>
       <use xlink:href="#ArialMT-36" transform="translate(166.845703 0)"/>
      </g>
     </g>
    </g>
    <g id="xtick_7">
     <g id="line2d_7">
      <g>
       <use xlink:href="#mcf72ee93aa" x="327.632042" y="275.8" style="stroke: #000000; stroke-width: 0.8"/>
      </g>
     </g>
     <g id="text_7">
      <!-- 2018 -->
      <g transform="translate(314.285792 291.389375) scale(0.12 -0.12)">
       <use xlink:href="#ArialMT-32"/>
       <use xlink:href="#ArialMT-30" transform="translate(55.615234 0)"/>
       <use xlink:href="#ArialMT-31" transform="translate(111.230469 0)"/>
       <use xlink:href="#ArialMT-38" transform="translate(166.845703 0)"/>
      </g>
     </g>
    </g>
    <g id="xtick_8">
     <g id="line2d_8">
      <g>
       <use xlink:href="#mcf72ee93aa" x="367.161105" y="275.8" style="stroke: #000000; stroke-width: 0.8"/>
      </g>
     </g>
     <g id="text_8">
      <!-- 2020 -->
      <g transform="translate(353.814855 291.389375) scale(0.12 -0.12)">
       <use xlink:href="#ArialMT-32"/>
       <use xlink:href="#ArialMT-30" transform="translate(55.615234 0)"/>
       <use xlink:href="#ArialMT-32" transform="translate(111.230469 0)"/>
       <use xlink:href="#ArialMT-30" transform="translate(166.845703 0)"/>
      </g>
     </g>
    </g>
    <g id="xtick_9">
     <g id="line2d_9">
      <g>
       <use xlink:href="#mcf72ee93aa" x="406.744318" y="275.8" style="stroke: #000000; stroke-width: 0.8"/>
      </g>
     </g>
     <g id="text_9">
      <!-- 2022 -->
      <g transform="translate(393.398068 291.389375) scale(0.12 -0.12)">
       <use xlink:href="#ArialMT-32"/>
       <use xlink:href="#ArialMT-30" transform="translate(55.615234 0)"/>
       <use xlink:href="#ArialMT-32" transform="translate(111.230469 0)"/>
       <use xlink:href="#ArialMT-32" transform="translate(166.845703 0)"/>
      </g>
     </g>
    </g>
    <g id="text_10">
     <!-- Time -->
     <g transform="translate(223.345781 307.795313) scale(0.14 -0.14)">
      <defs>
       <path id="ArialMT-54" d="M 1659 0 
L 1659 4041 
L 150 4041 
L 150 4581 
L 3781 4581 
L 3781 4041 
L 2266 4041 
L 2266 0 
L 1659 0 
z
" transform="scale(0.015625)"/>
       <path id="ArialMT-69" d="M 425 3934 
L 425 4581 
L 988 4581 
L 988 3934 
L 425 3934 
z
M 425 0 
L 425 3319 
L 988 3319 
L 988 0 
L 425 0 
z
" transform="scale(0.015625)"/>
       <path id="ArialMT-6d" d="M 422 0 
L 422 3319 
L 925 3319 
L 925 2853 
Q 1081 3097 1340 3245 
Q 1600 3394 1931 3394 
Q 2300 3394 2536 3241 
Q 2772 3088 2869 2813 
Q 3263 3394 3894 3394 
Q 4388 3394 4653 3120 
Q 4919 2847 4919 2278 
L 4919 0 
L 4359 0 
L 4359 2091 
Q 4359 2428 4304 2576 
Q 4250 2725 4106 2815 
Q 3963 2906 3769 2906 
Q 3419 2906 3187 2673 
Q 2956 2441 2956 1928 
L 2956 0 
L 2394 0 
L 2394 2156 
Q 2394 2531 2256 2718 
Q 2119 2906 1806 2906 
Q 1569 2906 1367 2781 
Q 1166 2656 1075 2415 
Q 984 2175 984 1722 
L 984 0 
L 422 0 
z
" transform="scale(0.015625)"/>
       <path id="ArialMT-65" d="M 2694 1069 
L 3275 997 
Q 3138 488 2766 206 
Q 2394 -75 1816 -75 
Q 1088 -75 661 373 
Q 234 822 234 1631 
Q 234 2469 665 2931 
Q 1097 3394 1784 3394 
Q 2450 3394 2872 2941 
Q 3294 2488 3294 1666 
Q 3294 1616 3291 1516 
L 816 1516 
Q 847 969 1125 678 
Q 1403 388 1819 388 
Q 2128 388 2347 550 
Q 2566 713 2694 1069 
z
M 847 1978 
L 2700 1978 
Q 2663 2397 2488 2606 
Q 2219 2931 1791 2931 
Q 1403 2931 1139 2672 
Q 875 2413 847 1978 
z
" transform="scale(0.015625)"/>
      </defs>
      <use xlink:href="#ArialMT-54"/>
      <use xlink:href="#ArialMT-69" transform="translate(57.333984 0)"/>
      <use xlink:href="#ArialMT-6d" transform="translate(79.550781 0)"/>
      <use xlink:href="#ArialMT-65" transform="translate(162.851562 0)"/>
     </g>
    </g>
   </g>
   <g id="matplotlib.axis_2">
    <g id="ytick_1">
     <g id="line2d_10">
      <defs>
       <path id="m9eefb83568" d="M 0 0 
L -3.5 0 
" style="stroke: #000000; stroke-width: 0.8"/>
      </defs>
      <g>
       <use xlink:href="#m9eefb83568" x="53.72" y="253.956998" style="stroke: #000000; stroke-width: 0.8"/>
      </g>
     </g>
     <g id="text_11">
      <!-- 1.2 -->
      <g transform="translate(30.04 258.251685) scale(0.12 -0.12)">
       <defs>
        <path id="ArialMT-2e" d="M 581 0 
L 581 641 
L 1222 641 
L 1222 0 
L 581 0 
z
" transform="scale(0.015625)"/>
       </defs>
       <use xlink:href="#ArialMT-31"/>
       <use xlink:href="#ArialMT-2e" transform="translate(55.615234 0)"/>
       <use xlink:href="#ArialMT-32" transform="translate(83.398438 0)"/>
      </g>
     </g>
    </g>
    <g id="ytick_2">
     <g id="line2d_11">
      <g>
       <use xlink:href="#m9eefb83568" x="53.72" y="216.57348" style="stroke: #000000; stroke-width: 0.8"/>
      </g>
     </g>
     <g id="text_12">
      <!-- 1.3 -->
      <g transform="translate(30.04 220.868168) scale(0.12 -0.12)">
       <defs>
        <path id="ArialMT-33" d="M 269 1209 
L 831 1284 
Q 928 806 1161 595 
Q 1394 384 1728 384 
Q 2125 384 2398 659 
Q 2672 934 2672 1341 
Q 2672 1728 2419 1979 
Q 2166 2231 1775 2231 
Q 1616 2231 1378 2169 
L 1441 2663 
Q 1497 2656 1531 2656 
Q 1891 2656 2178 2843 
Q 2466 3031 2466 3422 
Q 2466 3731 2256 3934 
Q 2047 4138 1716 4138 
Q 1388 4138 1169 3931 
Q 950 3725 888 3313 
L 325 3413 
Q 428 3978 793 4289 
Q 1159 4600 1703 4600 
Q 2078 4600 2393 4439 
Q 2709 4278 2876 4000 
Q 3044 3722 3044 3409 
Q 3044 3113 2884 2869 
Q 2725 2625 2413 2481 
Q 2819 2388 3044 2092 
Q 3269 1797 3269 1353 
Q 3269 753 2831 336 
Q 2394 -81 1725 -81 
Q 1122 -81 723 278 
Q 325 638 269 1209 
z
" transform="scale(0.015625)"/>
       </defs>
       <use xlink:href="#ArialMT-31"/>
       <use xlink:href="#ArialMT-2e" transform="translate(55.615234 0)"/>
       <use xlink:href="#ArialMT-33" transform="translate(83.398438 0)"/>
      </g>
     </g>
    </g>
    <g id="ytick_3">
     <g id="line2d_12">
      <g>
       <use xlink:href="#m9eefb83568" x="53.72" y="179.189963" style="stroke: #000000; stroke-width: 0.8"/>
      </g>
     </g>
     <g id="text_13">
      <!-- 1.4 -->
      <g transform="translate(30.04 183.48465) scale(0.12 -0.12)">
       <use xlink:href="#ArialMT-31"/>
       <use xlink:href="#ArialMT-2e" transform="translate(55.615234 0)"/>
       <use xlink:href="#ArialMT-34" transform="translate(83.398438 0)"/>
      </g>
     </g>
    </g>
    <g id="ytick_4">
     <g id="line2d_13">
      <g>
       <use xlink:href="#m9eefb83568" x="53.72" y="141.806446" style="stroke: #000000; stroke-width: 0.8"/>
      </g>
     </g>
     <g id="text_14">
      <!-- 1.5 -->
      <g transform="translate(30.04 146.101133) scale(0.12 -0.12)">
       <defs>
        <path id="ArialMT-35" d="M 266 1200 
L 856 1250 
Q 922 819 1161 601 
Q 1400 384 1738 384 
Q 2144 384 2425 690 
Q 2706 997 2706 1503 
Q 2706 1984 2436 2262 
Q 2166 2541 1728 2541 
Q 1456 2541 1237 2417 
Q 1019 2294 894 2097 
L 366 2166 
L 809 4519 
L 3088 4519 
L 3088 3981 
L 1259 3981 
L 1013 2750 
Q 1425 3038 1878 3038 
Q 2478 3038 2890 2622 
Q 3303 2206 3303 1553 
Q 3303 931 2941 478 
Q 2500 -78 1738 -78 
Q 1113 -78 717 272 
Q 322 622 266 1200 
z
" transform="scale(0.015625)"/>
       </defs>
       <use xlink:href="#ArialMT-31"/>
       <use xlink:href="#ArialMT-2e" transform="translate(55.615234 0)"/>
       <use xlink:href="#ArialMT-35" transform="translate(83.398438 0)"/>
      </g>
     </g>
    </g>
    <g id="ytick_5">
     <g id="line2d_14">
      <g>
       <use xlink:href="#m9eefb83568" x="53.72" y="104.422928" style="stroke: #000000; stroke-width: 0.8"/>
      </g>
     </g>
     <g id="text_15">
      <!-- 1.6 -->
      <g transform="translate(30.04 108.717616) scale(0.12 -0.12)">
       <use xlink:href="#ArialMT-31"/>
       <use xlink:href="#ArialMT-2e" transform="translate(55.615234 0)"/>
       <use xlink:href="#ArialMT-36" transform="translate(83.398438 0)"/>
      </g>
     </g>
    </g>
    <g id="ytick_6">
     <g id="line2d_15">
      <g>
       <use xlink:href="#m9eefb83568" x="53.72" y="67.039411" style="stroke: #000000; stroke-width: 0.8"/>
      </g>
     </g>
     <g id="text_16">
      <!-- 1.7 -->
      <g transform="translate(30.04 71.334098) scale(0.12 -0.12)">
       <defs>
        <path id="ArialMT-37" d="M 303 3981 
L 303 4522 
L 3269 4522 
L 3269 4084 
Q 2831 3619 2401 2847 
Q 1972 2075 1738 1259 
Q 1569 684 1522 0 
L 944 0 
Q 953 541 1156 1306 
Q 1359 2072 1739 2783 
Q 2119 3494 2547 3981 
L 303 3981 
z
" transform="scale(0.015625)"/>
       </defs>
       <use xlink:href="#ArialMT-31"/>
       <use xlink:href="#ArialMT-2e" transform="translate(55.615234 0)"/>
       <use xlink:href="#ArialMT-37" transform="translate(83.398438 0)"/>
      </g>
     </g>
    </g>
    <g id="ytick_7">
     <g id="line2d_16">
      <g>
       <use xlink:href="#m9eefb83568" x="53.72" y="29.655893" style="stroke: #000000; stroke-width: 0.8"/>
      </g>
     </g>
     <g id="text_17">
      <!-- 1.8 -->
      <g transform="translate(30.04 33.950581) scale(0.12 -0.12)">
       <use xlink:href="#ArialMT-31"/>
       <use xlink:href="#ArialMT-2e" transform="translate(55.615234 0)"/>
       <use xlink:href="#ArialMT-38" transform="translate(83.398438 0)"/>
      </g>
     </g>
    </g>
    <g id="text_18">
     <!-- Hydropower production, TWh -->
     <g transform="translate(23.093438 243.329219) rotate(-90) scale(0.14 -0.14)">
      <defs>
       <path id="ArialMT-48" d="M 513 0 
L 513 4581 
L 1119 4581 
L 1119 2700 
L 3500 2700 
L 3500 4581 
L 4106 4581 
L 4106 0 
L 3500 0 
L 3500 2159 
L 1119 2159 
L 1119 0 
L 513 0 
z
" transform="scale(0.015625)"/>
       <path id="ArialMT-79" d="M 397 -1278 
L 334 -750 
Q 519 -800 656 -800 
Q 844 -800 956 -737 
Q 1069 -675 1141 -563 
Q 1194 -478 1313 -144 
Q 1328 -97 1363 -6 
L 103 3319 
L 709 3319 
L 1400 1397 
Q 1534 1031 1641 628 
Q 1738 1016 1872 1384 
L 2581 3319 
L 3144 3319 
L 1881 -56 
Q 1678 -603 1566 -809 
Q 1416 -1088 1222 -1217 
Q 1028 -1347 759 -1347 
Q 597 -1347 397 -1278 
z
" transform="scale(0.015625)"/>
       <path id="ArialMT-64" d="M 2575 0 
L 2575 419 
Q 2259 -75 1647 -75 
Q 1250 -75 917 144 
Q 584 363 401 755 
Q 219 1147 219 1656 
Q 219 2153 384 2558 
Q 550 2963 881 3178 
Q 1213 3394 1622 3394 
Q 1922 3394 2156 3267 
Q 2391 3141 2538 2938 
L 2538 4581 
L 3097 4581 
L 3097 0 
L 2575 0 
z
M 797 1656 
Q 797 1019 1065 703 
Q 1334 388 1700 388 
Q 2069 388 2326 689 
Q 2584 991 2584 1609 
Q 2584 2291 2321 2609 
Q 2059 2928 1675 2928 
Q 1300 2928 1048 2622 
Q 797 2316 797 1656 
z
" transform="scale(0.015625)"/>
       <path id="ArialMT-72" d="M 416 0 
L 416 3319 
L 922 3319 
L 922 2816 
Q 1116 3169 1280 3281 
Q 1444 3394 1641 3394 
Q 1925 3394 2219 3213 
L 2025 2691 
Q 1819 2813 1613 2813 
Q 1428 2813 1281 2702 
Q 1134 2591 1072 2394 
Q 978 2094 978 1738 
L 978 0 
L 416 0 
z
" transform="scale(0.015625)"/>
       <path id="ArialMT-6f" d="M 213 1659 
Q 213 2581 725 3025 
Q 1153 3394 1769 3394 
Q 2453 3394 2887 2945 
Q 3322 2497 3322 1706 
Q 3322 1066 3130 698 
Q 2938 331 2570 128 
Q 2203 -75 1769 -75 
Q 1072 -75 642 372 
Q 213 819 213 1659 
z
M 791 1659 
Q 791 1022 1069 705 
Q 1347 388 1769 388 
Q 2188 388 2466 706 
Q 2744 1025 2744 1678 
Q 2744 2294 2464 2611 
Q 2184 2928 1769 2928 
Q 1347 2928 1069 2612 
Q 791 2297 791 1659 
z
" transform="scale(0.015625)"/>
       <path id="ArialMT-70" d="M 422 -1272 
L 422 3319 
L 934 3319 
L 934 2888 
Q 1116 3141 1344 3267 
Q 1572 3394 1897 3394 
Q 2322 3394 2647 3175 
Q 2972 2956 3137 2557 
Q 3303 2159 3303 1684 
Q 3303 1175 3120 767 
Q 2938 359 2589 142 
Q 2241 -75 1856 -75 
Q 1575 -75 1351 44 
Q 1128 163 984 344 
L 984 -1272 
L 422 -1272 
z
M 931 1641 
Q 931 1000 1190 694 
Q 1450 388 1819 388 
Q 2194 388 2461 705 
Q 2728 1022 2728 1688 
Q 2728 2322 2467 2637 
Q 2206 2953 1844 2953 
Q 1484 2953 1207 2617 
Q 931 2281 931 1641 
z
" transform="scale(0.015625)"/>
       <path id="ArialMT-77" d="M 1034 0 
L 19 3319 
L 600 3319 
L 1128 1403 
L 1325 691 
Q 1338 744 1497 1375 
L 2025 3319 
L 2603 3319 
L 3100 1394 
L 3266 759 
L 3456 1400 
L 4025 3319 
L 4572 3319 
L 3534 0 
L 2950 0 
L 2422 1988 
L 2294 2553 
L 1622 0 
L 1034 0 
z
" transform="scale(0.015625)"/>
       <path id="ArialMT-20" transform="scale(0.015625)"/>
       <path id="ArialMT-75" d="M 2597 0 
L 2597 488 
Q 2209 -75 1544 -75 
Q 1250 -75 995 37 
Q 741 150 617 320 
Q 494 491 444 738 
Q 409 903 409 1263 
L 409 3319 
L 972 3319 
L 972 1478 
Q 972 1038 1006 884 
Q 1059 663 1231 536 
Q 1403 409 1656 409 
Q 1909 409 2131 539 
Q 2353 669 2445 892 
Q 2538 1116 2538 1541 
L 2538 3319 
L 3100 3319 
L 3100 0 
L 2597 0 
z
" transform="scale(0.015625)"/>
       <path id="ArialMT-63" d="M 2588 1216 
L 3141 1144 
Q 3050 572 2676 248 
Q 2303 -75 1759 -75 
Q 1078 -75 664 370 
Q 250 816 250 1647 
Q 250 2184 428 2587 
Q 606 2991 970 3192 
Q 1334 3394 1763 3394 
Q 2303 3394 2647 3120 
Q 2991 2847 3088 2344 
L 2541 2259 
Q 2463 2594 2264 2762 
Q 2066 2931 1784 2931 
Q 1359 2931 1093 2626 
Q 828 2322 828 1663 
Q 828 994 1084 691 
Q 1341 388 1753 388 
Q 2084 388 2306 591 
Q 2528 794 2588 1216 
z
" transform="scale(0.015625)"/>
       <path id="ArialMT-74" d="M 1650 503 
L 1731 6 
Q 1494 -44 1306 -44 
Q 1000 -44 831 53 
Q 663 150 594 308 
Q 525 466 525 972 
L 525 2881 
L 113 2881 
L 113 3319 
L 525 3319 
L 525 4141 
L 1084 4478 
L 1084 3319 
L 1650 3319 
L 1650 2881 
L 1084 2881 
L 1084 941 
Q 1084 700 1114 631 
Q 1144 563 1211 522 
Q 1278 481 1403 481 
Q 1497 481 1650 503 
z
" transform="scale(0.015625)"/>
       <path id="ArialMT-6e" d="M 422 0 
L 422 3319 
L 928 3319 
L 928 2847 
Q 1294 3394 1984 3394 
Q 2284 3394 2536 3286 
Q 2788 3178 2913 3003 
Q 3038 2828 3088 2588 
Q 3119 2431 3119 2041 
L 3119 0 
L 2556 0 
L 2556 2019 
Q 2556 2363 2490 2533 
Q 2425 2703 2258 2804 
Q 2091 2906 1866 2906 
Q 1506 2906 1245 2678 
Q 984 2450 984 1813 
L 984 0 
L 422 0 
z
" transform="scale(0.015625)"/>
       <path id="ArialMT-2c" d="M 569 0 
L 569 641 
L 1209 641 
L 1209 0 
Q 1209 -353 1084 -570 
Q 959 -788 688 -906 
L 531 -666 
Q 709 -588 793 -436 
Q 878 -284 888 0 
L 569 0 
z
" transform="scale(0.015625)"/>
       <path id="ArialMT-57" d="M 1294 0 
L 78 4581 
L 700 4581 
L 1397 1578 
Q 1509 1106 1591 641 
Q 1766 1375 1797 1488 
L 2669 4581 
L 3400 4581 
L 4056 2263 
Q 4303 1400 4413 641 
Q 4500 1075 4641 1638 
L 5359 4581 
L 5969 4581 
L 4713 0 
L 4128 0 
L 3163 3491 
Q 3041 3928 3019 4028 
Q 2947 3713 2884 3491 
L 1913 0 
L 1294 0 
z
" transform="scale(0.015625)"/>
       <path id="ArialMT-68" d="M 422 0 
L 422 4581 
L 984 4581 
L 984 2938 
Q 1378 3394 1978 3394 
Q 2347 3394 2619 3248 
Q 2891 3103 3008 2847 
Q 3125 2591 3125 2103 
L 3125 0 
L 2563 0 
L 2563 2103 
Q 2563 2525 2380 2717 
Q 2197 2909 1863 2909 
Q 1613 2909 1392 2779 
Q 1172 2650 1078 2428 
Q 984 2206 984 1816 
L 984 0 
L 422 0 
z
" transform="scale(0.015625)"/>
      </defs>
      <use xlink:href="#ArialMT-48"/>
      <use xlink:href="#ArialMT-79" transform="translate(72.216797 0)"/>
      <use xlink:href="#ArialMT-64" transform="translate(122.216797 0)"/>
      <use xlink:href="#ArialMT-72" transform="translate(177.832031 0)"/>
      <use xlink:href="#ArialMT-6f" transform="translate(211.132812 0)"/>
      <use xlink:href="#ArialMT-70" transform="translate(266.748047 0)"/>
      <use xlink:href="#ArialMT-6f" transform="translate(322.363281 0)"/>
      <use xlink:href="#ArialMT-77" transform="translate(377.978516 0)"/>
      <use xlink:href="#ArialMT-65" transform="translate(450.195312 0)"/>
      <use xlink:href="#ArialMT-72" transform="translate(505.810547 0)"/>
      <use xlink:href="#ArialMT-20" transform="translate(539.111328 0)"/>
      <use xlink:href="#ArialMT-70" transform="translate(566.894531 0)"/>
      <use xlink:href="#ArialMT-72" transform="translate(622.509766 0)"/>
      <use xlink:href="#ArialMT-6f" transform="translate(655.810547 0)"/>
      <use xlink:href="#ArialMT-64" transform="translate(711.425781 0)"/>
      <use xlink:href="#ArialMT-75" transform="translate(767.041016 0)"/>
      <use xlink:href="#ArialMT-63" transform="translate(822.65625 0)"/>
      <use xlink:href="#ArialMT-74" transform="translate(872.65625 0)"/>
      <use xlink:href="#ArialMT-69" transform="translate(900.439453 0)"/>
      <use xlink:href="#ArialMT-6f" transform="translate(922.65625 0)"/>
      <use xlink:href="#ArialMT-6e" transform="translate(978.271484 0)"/>
      <use xlink:href="#ArialMT-2c" transform="translate(1033.886719 0)"/>
      <use xlink:href="#ArialMT-20" transform="translate(1061.669922 0)"/>
      <use xlink:href="#ArialMT-54" transform="translate(1087.703125 0)"/>
      <use xlink:href="#ArialMT-57" transform="translate(1148.787109 0)"/>
      <use xlink:href="#ArialMT-68" transform="translate(1243.171875 0)"/>
     </g>
    </g>
    <g id="text_19">
     <!-- 1e6 -->
     <g transform="translate(53.72 26.04) scale(0.12 -0.12)">
      <use xlink:href="#ArialMT-31"/>
      <use xlink:href="#ArialMT-65" transform="translate(55.615234 0)"/>
      <use xlink:href="#ArialMT-36" transform="translate(111.230469 0)"/>
     </g>
    </g>
   </g>
   <g id="line2d_17">
    <path d="M 70.530682 156.302475 
L 90.295214 157.169284 
L 110.059745 158.036093 
L 129.824277 158.902902 
L 149.642958 159.769711 
L 169.40749 160.63652 
L 189.172021 161.503329 
L 208.936553 162.370138 
L 228.755234 163.236947 
L 248.519766 164.103756 
L 268.284298 164.970565 
L 288.048829 165.837374 
L 307.86751 166.704183 
L 327.632042 167.570992 
L 347.396574 168.437801 
L 367.161105 169.30461 
L 386.979786 170.171419 
L 406.744318 171.038228 
" clip-path="url(#p20aef270b8)" style="fill: none; stroke-dasharray: 7.4,3.2; stroke-dashoffset: 0; stroke: #0000ff; stroke-width: 2"/>
   </g>
   <g id="patch_3">
    <path d="M 53.72 275.8 
L 53.72 29.04 
" style="fill: none; stroke: #000000; stroke-width: 0.8; stroke-linejoin: miter; stroke-linecap: square"/>
   </g>
   <g id="patch_4">
    <path d="M 53.72 275.8 
L 423.555 275.8 
" style="fill: none; stroke: #000000; stroke-width: 0.8; stroke-linejoin: miter; stroke-linecap: square"/>
   </g>
   <g id="text_20">
    <!-- Lycksele Municipality -->
    <g transform="translate(173.154687 23.04) scale(0.14 -0.14)">
     <defs>
      <path id="ArialMT-4c" d="M 469 0 
L 469 4581 
L 1075 4581 
L 1075 541 
L 3331 541 
L 3331 0 
L 469 0 
z
" transform="scale(0.015625)"/>
      <path id="ArialMT-6b" d="M 425 0 
L 425 4581 
L 988 4581 
L 988 1969 
L 2319 3319 
L 3047 3319 
L 1778 2088 
L 3175 0 
L 2481 0 
L 1384 1697 
L 988 1316 
L 988 0 
L 425 0 
z
" transform="scale(0.015625)"/>
      <path id="ArialMT-73" d="M 197 991 
L 753 1078 
Q 800 744 1014 566 
Q 1228 388 1613 388 
Q 2000 388 2187 545 
Q 2375 703 2375 916 
Q 2375 1106 2209 1216 
Q 2094 1291 1634 1406 
Q 1016 1563 777 1677 
Q 538 1791 414 1992 
Q 291 2194 291 2438 
Q 291 2659 392 2848 
Q 494 3038 669 3163 
Q 800 3259 1026 3326 
Q 1253 3394 1513 3394 
Q 1903 3394 2198 3281 
Q 2494 3169 2634 2976 
Q 2775 2784 2828 2463 
L 2278 2388 
Q 2241 2644 2061 2787 
Q 1881 2931 1553 2931 
Q 1166 2931 1000 2803 
Q 834 2675 834 2503 
Q 834 2394 903 2306 
Q 972 2216 1119 2156 
Q 1203 2125 1616 2013 
Q 2213 1853 2448 1751 
Q 2684 1650 2818 1456 
Q 2953 1263 2953 975 
Q 2953 694 2789 445 
Q 2625 197 2315 61 
Q 2006 -75 1616 -75 
Q 969 -75 630 194 
Q 291 463 197 991 
z
" transform="scale(0.015625)"/>
      <path id="ArialMT-6c" d="M 409 0 
L 409 4581 
L 972 4581 
L 972 0 
L 409 0 
z
" transform="scale(0.015625)"/>
      <path id="ArialMT-4d" d="M 475 0 
L 475 4581 
L 1388 4581 
L 2472 1338 
Q 2622 884 2691 659 
Q 2769 909 2934 1394 
L 4031 4581 
L 4847 4581 
L 4847 0 
L 4263 0 
L 4263 3834 
L 2931 0 
L 2384 0 
L 1059 3900 
L 1059 0 
L 475 0 
z
" transform="scale(0.015625)"/>
      <path id="ArialMT-61" d="M 2588 409 
Q 2275 144 1986 34 
Q 1697 -75 1366 -75 
Q 819 -75 525 192 
Q 231 459 231 875 
Q 231 1119 342 1320 
Q 453 1522 633 1644 
Q 813 1766 1038 1828 
Q 1203 1872 1538 1913 
Q 2219 1994 2541 2106 
Q 2544 2222 2544 2253 
Q 2544 2597 2384 2738 
Q 2169 2928 1744 2928 
Q 1347 2928 1158 2789 
Q 969 2650 878 2297 
L 328 2372 
Q 403 2725 575 2942 
Q 747 3159 1072 3276 
Q 1397 3394 1825 3394 
Q 2250 3394 2515 3294 
Q 2781 3194 2906 3042 
Q 3031 2891 3081 2659 
Q 3109 2516 3109 2141 
L 3109 1391 
Q 3109 606 3145 398 
Q 3181 191 3288 0 
L 2700 0 
Q 2613 175 2588 409 
z
M 2541 1666 
Q 2234 1541 1622 1453 
Q 1275 1403 1131 1340 
Q 988 1278 909 1158 
Q 831 1038 831 891 
Q 831 666 1001 516 
Q 1172 366 1500 366 
Q 1825 366 2078 508 
Q 2331 650 2450 897 
Q 2541 1088 2541 1459 
L 2541 1666 
z
" transform="scale(0.015625)"/>
     </defs>
     <use xlink:href="#ArialMT-4c"/>
     <use xlink:href="#ArialMT-79" transform="translate(51.865234 0)"/>
     <use xlink:href="#ArialMT-63" transform="translate(101.865234 0)"/>
     <use xlink:href="#ArialMT-6b" transform="translate(151.865234 0)"/>
     <use xlink:href="#ArialMT-73" transform="translate(201.865234 0)"/>
     <use xlink:href="#ArialMT-65" transform="translate(251.865234 0)"/>
     <use xlink:href="#ArialMT-6c" transform="translate(307.480469 0)"/>
     <use xlink:href="#ArialMT-65" transform="translate(329.697266 0)"/>
     <use xlink:href="#ArialMT-20" transform="translate(385.3125 0)"/>
     <use xlink:href="#ArialMT-4d" transform="translate(413.095703 0)"/>
     <use xlink:href="#ArialMT-75" transform="translate(496.396484 0)"/>
     <use xlink:href="#ArialMT-6e" transform="translate(552.011719 0)"/>
     <use xlink:href="#ArialMT-69" transform="translate(607.626953 0)"/>
     <use xlink:href="#ArialMT-63" transform="translate(629.84375 0)"/>
     <use xlink:href="#ArialMT-69" transform="translate(679.84375 0)"/>
     <use xlink:href="#ArialMT-70" transform="translate(702.060547 0)"/>
     <use xlink:href="#ArialMT-61" transform="translate(757.675781 0)"/>
     <use xlink:href="#ArialMT-6c" transform="translate(813.291016 0)"/>
     <use xlink:href="#ArialMT-69" transform="translate(835.507812 0)"/>
     <use xlink:href="#ArialMT-74" transform="translate(857.724609 0)"/>
     <use xlink:href="#ArialMT-79" transform="translate(885.507812 0)"/>
    </g>
   </g>
   <g id="legend_1">
    <g id="patch_5">
     <path d="M 306.7275 72.883125 
L 415.155 72.883125 
Q 417.555 72.883125 417.555 70.483125 
L 417.555 37.44 
Q 417.555 35.04 415.155 35.04 
L 306.7275 35.04 
Q 304.3275 35.04 304.3275 37.44 
L 304.3275 70.483125 
Q 304.3275 72.883125 306.7275 72.883125 
z
" style="fill: #ffffff; opacity: 0.8; stroke: #cccccc; stroke-linejoin: miter"/>
    </g>
    <g id="PathCollection_2">
     <g>
      <use xlink:href="#mec528e5ed7" x="321.1275" y="45.433125" style="stroke: #000000"/>
     </g>
    </g>
    <g id="text_21">
     <!-- Original Data -->
     <g transform="translate(342.7275 48.583125) scale(0.12 -0.12)">
      <defs>
       <path id="ArialMT-4f" d="M 309 2231 
Q 309 3372 921 4017 
Q 1534 4663 2503 4663 
Q 3138 4663 3647 4359 
Q 4156 4056 4423 3514 
Q 4691 2972 4691 2284 
Q 4691 1588 4409 1038 
Q 4128 488 3612 205 
Q 3097 -78 2500 -78 
Q 1853 -78 1343 234 
Q 834 547 571 1087 
Q 309 1628 309 2231 
z
M 934 2222 
Q 934 1394 1379 917 
Q 1825 441 2497 441 
Q 3181 441 3623 922 
Q 4066 1403 4066 2288 
Q 4066 2847 3877 3264 
Q 3688 3681 3323 3911 
Q 2959 4141 2506 4141 
Q 1863 4141 1398 3698 
Q 934 3256 934 2222 
z
" transform="scale(0.015625)"/>
       <path id="ArialMT-67" d="M 319 -275 
L 866 -356 
Q 900 -609 1056 -725 
Q 1266 -881 1628 -881 
Q 2019 -881 2231 -725 
Q 2444 -569 2519 -288 
Q 2563 -116 2559 434 
Q 2191 0 1641 0 
Q 956 0 581 494 
Q 206 988 206 1678 
Q 206 2153 378 2554 
Q 550 2956 876 3175 
Q 1203 3394 1644 3394 
Q 2231 3394 2613 2919 
L 2613 3319 
L 3131 3319 
L 3131 450 
Q 3131 -325 2973 -648 
Q 2816 -972 2473 -1159 
Q 2131 -1347 1631 -1347 
Q 1038 -1347 672 -1080 
Q 306 -813 319 -275 
z
M 784 1719 
Q 784 1066 1043 766 
Q 1303 466 1694 466 
Q 2081 466 2343 764 
Q 2606 1063 2606 1700 
Q 2606 2309 2336 2618 
Q 2066 2928 1684 2928 
Q 1309 2928 1046 2623 
Q 784 2319 784 1719 
z
" transform="scale(0.015625)"/>
       <path id="ArialMT-44" d="M 494 0 
L 494 4581 
L 2072 4581 
Q 2606 4581 2888 4516 
Q 3281 4425 3559 4188 
Q 3922 3881 4101 3404 
Q 4281 2928 4281 2316 
Q 4281 1794 4159 1391 
Q 4038 988 3847 723 
Q 3656 459 3429 307 
Q 3203 156 2883 78 
Q 2563 0 2147 0 
L 494 0 
z
M 1100 541 
L 2078 541 
Q 2531 541 2789 625 
Q 3047 709 3200 863 
Q 3416 1078 3536 1442 
Q 3656 1806 3656 2325 
Q 3656 3044 3420 3430 
Q 3184 3816 2847 3947 
Q 2603 4041 2063 4041 
L 1100 4041 
L 1100 541 
z
" transform="scale(0.015625)"/>
      </defs>
      <use xlink:href="#ArialMT-4f"/>
      <use xlink:href="#ArialMT-72" transform="translate(77.783203 0)"/>
      <use xlink:href="#ArialMT-69" transform="translate(111.083984 0)"/>
      <use xlink:href="#ArialMT-67" transform="translate(133.300781 0)"/>
      <use xlink:href="#ArialMT-69" transform="translate(188.916016 0)"/>
      <use xlink:href="#ArialMT-6e" transform="translate(211.132812 0)"/>
      <use xlink:href="#ArialMT-61" transform="translate(266.748047 0)"/>
      <use xlink:href="#ArialMT-6c" transform="translate(322.363281 0)"/>
      <use xlink:href="#ArialMT-20" transform="translate(344.580078 0)"/>
      <use xlink:href="#ArialMT-44" transform="translate(372.363281 0)"/>
      <use xlink:href="#ArialMT-61" transform="translate(444.580078 0)"/>
      <use xlink:href="#ArialMT-74" transform="translate(500.195312 0)"/>
      <use xlink:href="#ArialMT-61" transform="translate(527.978516 0)"/>
     </g>
    </g>
    <g id="line2d_18">
     <path d="M 309.1275 61.498125 
L 321.1275 61.498125 
L 333.1275 61.498125 
" style="fill: none; stroke-dasharray: 7.4,3.2; stroke-dashoffset: 0; stroke: #0000ff; stroke-width: 2"/>
    </g>
    <g id="text_22">
     <!-- Linear Trend -->
     <g transform="translate(342.7275 65.698125) scale(0.12 -0.12)">
      <use xlink:href="#ArialMT-4c"/>
      <use xlink:href="#ArialMT-69" transform="translate(55.615234 0)"/>
      <use xlink:href="#ArialMT-6e" transform="translate(77.832031 0)"/>
      <use xlink:href="#ArialMT-65" transform="translate(133.447266 0)"/>
      <use xlink:href="#ArialMT-61" transform="translate(189.0625 0)"/>
      <use xlink:href="#ArialMT-72" transform="translate(244.677734 0)"/>
      <use xlink:href="#ArialMT-20" transform="translate(277.978516 0)"/>
      <use xlink:href="#ArialMT-54" transform="translate(304.011719 0)"/>
      <use xlink:href="#ArialMT-72" transform="translate(361.345703 0)"/>
      <use xlink:href="#ArialMT-65" transform="translate(394.646484 0)"/>
      <use xlink:href="#ArialMT-6e" transform="translate(450.261719 0)"/>
      <use xlink:href="#ArialMT-64" transform="translate(505.876953 0)"/>
     </g>
    </g>
   </g>
  </g>
  <g id="axes_2">
   <g id="patch_6">
    <path d="M 481.205 275.8 
L 851.04 275.8 
L 851.04 29.04 
L 481.205 29.04 
z
" style="fill: #ffffff"/>
   </g>
   <g id="PathCollection_3">
    <g clip-path="url(#p26b07209e8)">
     <use xlink:href="#mec528e5ed7" x="761.751371" y="178.531237" style="stroke: #000000"/>
     <use xlink:href="#mec528e5ed7" x="498.015682" y="256.239457" style="stroke: #000000"/>
     <use xlink:href="#mec528e5ed7" x="782.849135" y="195.575749" style="stroke: #000000"/>
     <use xlink:href="#mec528e5ed7" x="722.717187" y="225.280171" style="stroke: #000000"/>
     <use xlink:href="#mec528e5ed7" x="687.48601" y="219.550445" style="stroke: #000000"/>
     <use xlink:href="#mec528e5ed7" x="708.953491" y="219.28618" style="stroke: #000000"/>
     <use xlink:href="#mec528e5ed7" x="614.282857" y="229.496047" style="stroke: #000000"/>
     <use xlink:href="#mec528e5ed7" x="834.229318" y="187.756323" style="stroke: #000000"/>
     <use xlink:href="#mec528e5ed7" x="664.861831" y="249.703992" style="stroke: #000000"/>
     <use xlink:href="#mec528e5ed7" x="557.475338" y="245.410628" style="stroke: #000000"/>
     <use xlink:href="#mec528e5ed7" x="688.477537" y="196.850367" style="stroke: #000000"/>
     <use xlink:href="#mec528e5ed7" x="608.044061" y="250.648154" style="stroke: #000000"/>
     <use xlink:href="#mec528e5ed7" x="535.355431" y="221.188438" style="stroke: #000000"/>
     <use xlink:href="#mec528e5ed7" x="578.711446" y="222.78378" style="stroke: #000000"/>
     <use xlink:href="#mec528e5ed7" x="561.961293" y="213.462583" style="stroke: #000000"/>
     <use xlink:href="#mec528e5ed7" x="649.106078" y="215.970392" style="stroke: #000000"/>
     <use xlink:href="#mec528e5ed7" x="726.991896" y="218.486368" style="stroke: #000000"/>
     <use xlink:href="#mec528e5ed7" x="680.893627" y="193.167623" style="stroke: #000000"/>
    </g>
   </g>
   <g id="matplotlib.axis_3">
    <g id="xtick_10">
     <g id="line2d_19">
      <g>
       <use xlink:href="#mcf72ee93aa" x="497.889859" y="275.8" style="stroke: #000000; stroke-width: 0.8"/>
      </g>
     </g>
     <g id="text_23">
      <!-- −1.5 -->
      <g transform="translate(486.045484 291.389375) scale(0.12 -0.12)">
       <defs>
        <path id="ArialMT-2212" d="M 3381 1997 
L 356 1997 
L 356 2522 
L 3381 2522 
L 3381 1997 
z
" transform="scale(0.015625)"/>
       </defs>
       <use xlink:href="#ArialMT-2212"/>
       <use xlink:href="#ArialMT-31" transform="translate(58.398438 0)"/>
       <use xlink:href="#ArialMT-2e" transform="translate(114.013672 0)"/>
       <use xlink:href="#ArialMT-35" transform="translate(141.796875 0)"/>
      </g>
     </g>
    </g>
    <g id="xtick_11">
     <g id="line2d_20">
      <g>
       <use xlink:href="#mcf72ee93aa" x="545.324253" y="275.8" style="stroke: #000000; stroke-width: 0.8"/>
      </g>
     </g>
     <g id="text_24">
      <!-- −1.0 -->
      <g transform="translate(533.479878 291.389375) scale(0.12 -0.12)">
       <use xlink:href="#ArialMT-2212"/>
       <use xlink:href="#ArialMT-31" transform="translate(58.398438 0)"/>
       <use xlink:href="#ArialMT-2e" transform="translate(114.013672 0)"/>
       <use xlink:href="#ArialMT-30" transform="translate(141.796875 0)"/>
      </g>
     </g>
    </g>
    <g id="xtick_12">
     <g id="line2d_21">
      <g>
       <use xlink:href="#mcf72ee93aa" x="592.758647" y="275.8" style="stroke: #000000; stroke-width: 0.8"/>
      </g>
     </g>
     <g id="text_25">
      <!-- −0.5 -->
      <g transform="translate(580.914272 291.389375) scale(0.12 -0.12)">
       <use xlink:href="#ArialMT-2212"/>
       <use xlink:href="#ArialMT-30" transform="translate(58.398438 0)"/>
       <use xlink:href="#ArialMT-2e" transform="translate(114.013672 0)"/>
       <use xlink:href="#ArialMT-35" transform="translate(141.796875 0)"/>
      </g>
     </g>
    </g>
    <g id="xtick_13">
     <g id="line2d_22">
      <g>
       <use xlink:href="#mcf72ee93aa" x="640.193041" y="275.8" style="stroke: #000000; stroke-width: 0.8"/>
      </g>
     </g>
     <g id="text_26">
      <!-- 0.0 -->
      <g transform="translate(631.853041 291.389375) scale(0.12 -0.12)">
       <use xlink:href="#ArialMT-30"/>
       <use xlink:href="#ArialMT-2e" transform="translate(55.615234 0)"/>
       <use xlink:href="#ArialMT-30" transform="translate(83.398438 0)"/>
      </g>
     </g>
    </g>
    <g id="xtick_14">
     <g id="line2d_23">
      <g>
       <use xlink:href="#mcf72ee93aa" x="687.627436" y="275.8" style="stroke: #000000; stroke-width: 0.8"/>
      </g>
     </g>
     <g id="text_27">
      <!-- 0.5 -->
      <g transform="translate(679.287436 291.389375) scale(0.12 -0.12)">
       <use xlink:href="#ArialMT-30"/>
       <use xlink:href="#ArialMT-2e" transform="translate(55.615234 0)"/>
       <use xlink:href="#ArialMT-35" transform="translate(83.398438 0)"/>
      </g>
     </g>
    </g>
    <g id="xtick_15">
     <g id="line2d_24">
      <g>
       <use xlink:href="#mcf72ee93aa" x="735.06183" y="275.8" style="stroke: #000000; stroke-width: 0.8"/>
      </g>
     </g>
     <g id="text_28">
      <!-- 1.0 -->
      <g transform="translate(726.72183 291.389375) scale(0.12 -0.12)">
       <use xlink:href="#ArialMT-31"/>
       <use xlink:href="#ArialMT-2e" transform="translate(55.615234 0)"/>
       <use xlink:href="#ArialMT-30" transform="translate(83.398438 0)"/>
      </g>
     </g>
    </g>
    <g id="xtick_16">
     <g id="line2d_25">
      <g>
       <use xlink:href="#mcf72ee93aa" x="782.496224" y="275.8" style="stroke: #000000; stroke-width: 0.8"/>
      </g>
     </g>
     <g id="text_29">
      <!-- 1.5 -->
      <g transform="translate(774.156224 291.389375) scale(0.12 -0.12)">
       <use xlink:href="#ArialMT-31"/>
       <use xlink:href="#ArialMT-2e" transform="translate(55.615234 0)"/>
       <use xlink:href="#ArialMT-35" transform="translate(83.398438 0)"/>
      </g>
     </g>
    </g>
    <g id="xtick_17">
     <g id="line2d_26">
      <g>
       <use xlink:href="#mcf72ee93aa" x="829.930618" y="275.8" style="stroke: #000000; stroke-width: 0.8"/>
      </g>
     </g>
     <g id="text_30">
      <!-- 2.0 -->
      <g transform="translate(821.590618 291.389375) scale(0.12 -0.12)">
       <use xlink:href="#ArialMT-32"/>
       <use xlink:href="#ArialMT-2e" transform="translate(55.615234 0)"/>
       <use xlink:href="#ArialMT-30" transform="translate(83.398438 0)"/>
      </g>
     </g>
    </g>
    <g id="text_31">
     <!-- Yearly maxima SPEI12 of September calendar months -->
     <g transform="translate(497.13375 307.965937) scale(0.14 -0.14)">
      <defs>
       <path id="ArialMT-59" d="M 1784 0 
L 1784 1941 
L 19 4581 
L 756 4581 
L 1659 3200 
Q 1909 2813 2125 2425 
Q 2331 2784 2625 3234 
L 3513 4581 
L 4219 4581 
L 2391 1941 
L 2391 0 
L 1784 0 
z
" transform="scale(0.015625)"/>
       <path id="ArialMT-78" d="M 47 0 
L 1259 1725 
L 138 3319 
L 841 3319 
L 1350 2541 
Q 1494 2319 1581 2169 
Q 1719 2375 1834 2534 
L 2394 3319 
L 3066 3319 
L 1919 1756 
L 3153 0 
L 2463 0 
L 1781 1031 
L 1600 1309 
L 728 0 
L 47 0 
z
" transform="scale(0.015625)"/>
       <path id="ArialMT-53" d="M 288 1472 
L 859 1522 
Q 900 1178 1048 958 
Q 1197 738 1509 602 
Q 1822 466 2213 466 
Q 2559 466 2825 569 
Q 3091 672 3220 851 
Q 3350 1031 3350 1244 
Q 3350 1459 3225 1620 
Q 3100 1781 2813 1891 
Q 2628 1963 1997 2114 
Q 1366 2266 1113 2400 
Q 784 2572 623 2826 
Q 463 3081 463 3397 
Q 463 3744 659 4045 
Q 856 4347 1234 4503 
Q 1613 4659 2075 4659 
Q 2584 4659 2973 4495 
Q 3363 4331 3572 4012 
Q 3781 3694 3797 3291 
L 3216 3247 
Q 3169 3681 2898 3903 
Q 2628 4125 2100 4125 
Q 1550 4125 1298 3923 
Q 1047 3722 1047 3438 
Q 1047 3191 1225 3031 
Q 1400 2872 2139 2705 
Q 2878 2538 3153 2413 
Q 3553 2228 3743 1945 
Q 3934 1663 3934 1294 
Q 3934 928 3725 604 
Q 3516 281 3123 101 
Q 2731 -78 2241 -78 
Q 1619 -78 1198 103 
Q 778 284 539 648 
Q 300 1013 288 1472 
z
" transform="scale(0.015625)"/>
       <path id="ArialMT-50" d="M 494 0 
L 494 4581 
L 2222 4581 
Q 2678 4581 2919 4538 
Q 3256 4481 3484 4323 
Q 3713 4166 3852 3881 
Q 3991 3597 3991 3256 
Q 3991 2672 3619 2267 
Q 3247 1863 2275 1863 
L 1100 1863 
L 1100 0 
L 494 0 
z
M 1100 2403 
L 2284 2403 
Q 2872 2403 3119 2622 
Q 3366 2841 3366 3238 
Q 3366 3525 3220 3729 
Q 3075 3934 2838 4000 
Q 2684 4041 2272 4041 
L 1100 4041 
L 1100 2403 
z
" transform="scale(0.015625)"/>
       <path id="ArialMT-45" d="M 506 0 
L 506 4581 
L 3819 4581 
L 3819 4041 
L 1113 4041 
L 1113 2638 
L 3647 2638 
L 3647 2100 
L 1113 2100 
L 1113 541 
L 3925 541 
L 3925 0 
L 506 0 
z
" transform="scale(0.015625)"/>
       <path id="ArialMT-49" d="M 597 0 
L 597 4581 
L 1203 4581 
L 1203 0 
L 597 0 
z
" transform="scale(0.015625)"/>
       <path id="ArialMT-66" d="M 556 0 
L 556 2881 
L 59 2881 
L 59 3319 
L 556 3319 
L 556 3672 
Q 556 4006 616 4169 
Q 697 4388 901 4523 
Q 1106 4659 1475 4659 
Q 1713 4659 2000 4603 
L 1916 4113 
Q 1741 4144 1584 4144 
Q 1328 4144 1222 4034 
Q 1116 3925 1116 3625 
L 1116 3319 
L 1763 3319 
L 1763 2881 
L 1116 2881 
L 1116 0 
L 556 0 
z
" transform="scale(0.015625)"/>
       <path id="ArialMT-62" d="M 941 0 
L 419 0 
L 419 4581 
L 981 4581 
L 981 2947 
Q 1338 3394 1891 3394 
Q 2197 3394 2470 3270 
Q 2744 3147 2920 2923 
Q 3097 2700 3197 2384 
Q 3297 2069 3297 1709 
Q 3297 856 2875 390 
Q 2453 -75 1863 -75 
Q 1275 -75 941 416 
L 941 0 
z
M 934 1684 
Q 934 1088 1097 822 
Q 1363 388 1816 388 
Q 2184 388 2453 708 
Q 2722 1028 2722 1663 
Q 2722 2313 2464 2622 
Q 2206 2931 1841 2931 
Q 1472 2931 1203 2611 
Q 934 2291 934 1684 
z
" transform="scale(0.015625)"/>
      </defs>
      <use xlink:href="#ArialMT-59"/>
      <use xlink:href="#ArialMT-65" transform="translate(57.574219 0)"/>
      <use xlink:href="#ArialMT-61" transform="translate(113.189453 0)"/>
      <use xlink:href="#ArialMT-72" transform="translate(168.804688 0)"/>
      <use xlink:href="#ArialMT-6c" transform="translate(202.105469 0)"/>
      <use xlink:href="#ArialMT-79" transform="translate(224.322266 0)"/>
      <use xlink:href="#ArialMT-20" transform="translate(274.322266 0)"/>
      <use xlink:href="#ArialMT-6d" transform="translate(302.105469 0)"/>
      <use xlink:href="#ArialMT-61" transform="translate(385.40625 0)"/>
      <use xlink:href="#ArialMT-78" transform="translate(441.021484 0)"/>
      <use xlink:href="#ArialMT-69" transform="translate(491.021484 0)"/>
      <use xlink:href="#ArialMT-6d" transform="translate(513.238281 0)"/>
      <use xlink:href="#ArialMT-61" transform="translate(596.539062 0)"/>
      <use xlink:href="#ArialMT-20" transform="translate(652.154297 0)"/>
      <use xlink:href="#ArialMT-53" transform="translate(679.9375 0)"/>
      <use xlink:href="#ArialMT-50" transform="translate(746.636719 0)"/>
      <use xlink:href="#ArialMT-45" transform="translate(813.335938 0)"/>
      <use xlink:href="#ArialMT-49" transform="translate(880.035156 0)"/>
      <use xlink:href="#ArialMT-31" transform="translate(907.818359 0)"/>
      <use xlink:href="#ArialMT-32" transform="translate(963.433594 0)"/>
      <use xlink:href="#ArialMT-20" transform="translate(1019.048828 0)"/>
      <use xlink:href="#ArialMT-6f" transform="translate(1046.832031 0)"/>
      <use xlink:href="#ArialMT-66" transform="translate(1102.447266 0)"/>
      <use xlink:href="#ArialMT-20" transform="translate(1130.230469 0)"/>
      <use xlink:href="#ArialMT-53" transform="translate(1158.013672 0)"/>
      <use xlink:href="#ArialMT-65" transform="translate(1224.712891 0)"/>
      <use xlink:href="#ArialMT-70" transform="translate(1280.328125 0)"/>
      <use xlink:href="#ArialMT-74" transform="translate(1335.943359 0)"/>
      <use xlink:href="#ArialMT-65" transform="translate(1363.726562 0)"/>
      <use xlink:href="#ArialMT-6d" transform="translate(1419.341797 0)"/>
      <use xlink:href="#ArialMT-62" transform="translate(1502.642578 0)"/>
      <use xlink:href="#ArialMT-65" transform="translate(1558.257812 0)"/>
      <use xlink:href="#ArialMT-72" transform="translate(1613.873047 0)"/>
      <use xlink:href="#ArialMT-20" transform="translate(1647.173828 0)"/>
      <use xlink:href="#ArialMT-63" transform="translate(1674.957031 0)"/>
      <use xlink:href="#ArialMT-61" transform="translate(1724.957031 0)"/>
      <use xlink:href="#ArialMT-6c" transform="translate(1780.572266 0)"/>
      <use xlink:href="#ArialMT-65" transform="translate(1802.789062 0)"/>
      <use xlink:href="#ArialMT-6e" transform="translate(1858.404297 0)"/>
      <use xlink:href="#ArialMT-64" transform="translate(1914.019531 0)"/>
      <use xlink:href="#ArialMT-61" transform="translate(1969.634766 0)"/>
      <use xlink:href="#ArialMT-72" transform="translate(2025.25 0)"/>
      <use xlink:href="#ArialMT-20" transform="translate(2058.550781 0)"/>
      <use xlink:href="#ArialMT-6d" transform="translate(2086.333984 0)"/>
      <use xlink:href="#ArialMT-6f" transform="translate(2169.634766 0)"/>
      <use xlink:href="#ArialMT-6e" transform="translate(2225.25 0)"/>
      <use xlink:href="#ArialMT-74" transform="translate(2280.865234 0)"/>
      <use xlink:href="#ArialMT-68" transform="translate(2308.648438 0)"/>
      <use xlink:href="#ArialMT-73" transform="translate(2364.263672 0)"/>
     </g>
    </g>
   </g>
   <g id="matplotlib.axis_4">
    <g id="ytick_8">
     <g id="line2d_27">
      <g>
       <use xlink:href="#m9eefb83568" x="481.205" y="256.818462" style="stroke: #000000; stroke-width: 0.8"/>
      </g>
     </g>
     <g id="text_32">
      <!-- −20 -->
      <g transform="translate(453.85 261.113149) scale(0.12 -0.12)">
       <use xlink:href="#ArialMT-2212"/>
       <use xlink:href="#ArialMT-32" transform="translate(58.398438 0)"/>
       <use xlink:href="#ArialMT-30" transform="translate(114.013672 0)"/>
      </g>
     </g>
    </g>
    <g id="ytick_9">
     <g id="line2d_28">
      <g>
       <use xlink:href="#m9eefb83568" x="481.205" y="218.855385" style="stroke: #000000; stroke-width: 0.8"/>
      </g>
     </g>
     <g id="text_33">
      <!-- 0 -->
      <g transform="translate(467.531875 223.150072) scale(0.12 -0.12)">
       <use xlink:href="#ArialMT-30"/>
      </g>
     </g>
    </g>
    <g id="ytick_10">
     <g id="line2d_29">
      <g>
       <use xlink:href="#m9eefb83568" x="481.205" y="180.892308" style="stroke: #000000; stroke-width: 0.8"/>
      </g>
     </g>
     <g id="text_34">
      <!-- 20 -->
      <g transform="translate(460.85875 185.186995) scale(0.12 -0.12)">
       <use xlink:href="#ArialMT-32"/>
       <use xlink:href="#ArialMT-30" transform="translate(55.615234 0)"/>
      </g>
     </g>
    </g>
    <g id="ytick_11">
     <g id="line2d_30">
      <g>
       <use xlink:href="#m9eefb83568" x="481.205" y="142.929231" style="stroke: #000000; stroke-width: 0.8"/>
      </g>
     </g>
     <g id="text_35">
      <!-- 40 -->
      <g transform="translate(460.85875 147.223918) scale(0.12 -0.12)">
       <use xlink:href="#ArialMT-34"/>
       <use xlink:href="#ArialMT-30" transform="translate(55.615234 0)"/>
      </g>
     </g>
    </g>
    <g id="ytick_12">
     <g id="line2d_31">
      <g>
       <use xlink:href="#m9eefb83568" x="481.205" y="104.966154" style="stroke: #000000; stroke-width: 0.8"/>
      </g>
     </g>
     <g id="text_36">
      <!-- 60 -->
      <g transform="translate(460.85875 109.260841) scale(0.12 -0.12)">
       <use xlink:href="#ArialMT-36"/>
       <use xlink:href="#ArialMT-30" transform="translate(55.615234 0)"/>
      </g>
     </g>
    </g>
    <g id="ytick_13">
     <g id="line2d_32">
      <g>
       <use xlink:href="#m9eefb83568" x="481.205" y="67.003077" style="stroke: #000000; stroke-width: 0.8"/>
      </g>
     </g>
     <g id="text_37">
      <!-- 80 -->
      <g transform="translate(460.85875 71.297764) scale(0.12 -0.12)">
       <use xlink:href="#ArialMT-38"/>
       <use xlink:href="#ArialMT-30" transform="translate(55.615234 0)"/>
      </g>
     </g>
    </g>
    <g id="ytick_14">
     <g id="line2d_33">
      <g>
       <use xlink:href="#m9eefb83568" x="481.205" y="29.04" style="stroke: #000000; stroke-width: 0.8"/>
      </g>
     </g>
     <g id="text_38">
      <!-- 100 -->
      <g transform="translate(454.185625 33.334688) scale(0.12 -0.12)">
       <use xlink:href="#ArialMT-31"/>
       <use xlink:href="#ArialMT-30" transform="translate(55.615234 0)"/>
       <use xlink:href="#ArialMT-30" transform="translate(111.230469 0)"/>
      </g>
     </g>
    </g>
    <g id="text_39">
     <!-- Hydropower production anomaly (%) -->
     <g transform="translate(446.903438 266.019063) rotate(-90) scale(0.14 -0.14)">
      <defs>
       <path id="ArialMT-28" d="M 1497 -1347 
Q 1031 -759 709 28 
Q 388 816 388 1659 
Q 388 2403 628 3084 
Q 909 3875 1497 4659 
L 1900 4659 
Q 1522 4009 1400 3731 
Q 1209 3300 1100 2831 
Q 966 2247 966 1656 
Q 966 153 1900 -1347 
L 1497 -1347 
z
" transform="scale(0.015625)"/>
       <path id="ArialMT-25" d="M 372 3481 
Q 372 3972 619 4315 
Q 866 4659 1334 4659 
Q 1766 4659 2048 4351 
Q 2331 4044 2331 3447 
Q 2331 2866 2045 2552 
Q 1759 2238 1341 2238 
Q 925 2238 648 2547 
Q 372 2856 372 3481 
z
M 1350 4272 
Q 1141 4272 1002 4090 
Q 863 3909 863 3425 
Q 863 2984 1003 2804 
Q 1144 2625 1350 2625 
Q 1563 2625 1702 2806 
Q 1841 2988 1841 3469 
Q 1841 3913 1700 4092 
Q 1559 4272 1350 4272 
z
M 1353 -169 
L 3859 4659 
L 4316 4659 
L 1819 -169 
L 1353 -169 
z
M 3334 1075 
Q 3334 1569 3581 1911 
Q 3828 2253 4300 2253 
Q 4731 2253 5014 1945 
Q 5297 1638 5297 1041 
Q 5297 459 5011 145 
Q 4725 -169 4303 -169 
Q 3888 -169 3611 142 
Q 3334 453 3334 1075 
z
M 4316 1866 
Q 4103 1866 3964 1684 
Q 3825 1503 3825 1019 
Q 3825 581 3965 400 
Q 4106 219 4313 219 
Q 4528 219 4667 400 
Q 4806 581 4806 1063 
Q 4806 1506 4665 1686 
Q 4525 1866 4316 1866 
z
" transform="scale(0.015625)"/>
       <path id="ArialMT-29" d="M 791 -1347 
L 388 -1347 
Q 1322 153 1322 1656 
Q 1322 2244 1188 2822 
Q 1081 3291 891 3722 
Q 769 4003 388 4659 
L 791 4659 
Q 1378 3875 1659 3084 
Q 1900 2403 1900 1659 
Q 1900 816 1576 28 
Q 1253 -759 791 -1347 
z
" transform="scale(0.015625)"/>
      </defs>
      <use xlink:href="#ArialMT-48"/>
      <use xlink:href="#ArialMT-79" transform="translate(72.216797 0)"/>
      <use xlink:href="#ArialMT-64" transform="translate(122.216797 0)"/>
      <use xlink:href="#ArialMT-72" transform="translate(177.832031 0)"/>
      <use xlink:href="#ArialMT-6f" transform="translate(211.132812 0)"/>
      <use xlink:href="#ArialMT-70" transform="translate(266.748047 0)"/>
      <use xlink:href="#ArialMT-6f" transform="translate(322.363281 0)"/>
      <use xlink:href="#ArialMT-77" transform="translate(377.978516 0)"/>
      <use xlink:href="#ArialMT-65" transform="translate(450.195312 0)"/>
      <use xlink:href="#ArialMT-72" transform="translate(505.810547 0)"/>
      <use xlink:href="#ArialMT-20" transform="translate(539.111328 0)"/>
      <use xlink:href="#ArialMT-70" transform="translate(566.894531 0)"/>
      <use xlink:href="#ArialMT-72" transform="translate(622.509766 0)"/>
      <use xlink:href="#ArialMT-6f" transform="translate(655.810547 0)"/>
      <use xlink:href="#ArialMT-64" transform="translate(711.425781 0)"/>
      <use xlink:href="#ArialMT-75" transform="translate(767.041016 0)"/>
      <use xlink:href="#ArialMT-63" transform="translate(822.65625 0)"/>
      <use xlink:href="#ArialMT-74" transform="translate(872.65625 0)"/>
      <use xlink:href="#ArialMT-69" transform="translate(900.439453 0)"/>
      <use xlink:href="#ArialMT-6f" transform="translate(922.65625 0)"/>
      <use xlink:href="#ArialMT-6e" transform="translate(978.271484 0)"/>
      <use xlink:href="#ArialMT-20" transform="translate(1033.886719 0)"/>
      <use xlink:href="#ArialMT-61" transform="translate(1061.669922 0)"/>
      <use xlink:href="#ArialMT-6e" transform="translate(1117.285156 0)"/>
      <use xlink:href="#ArialMT-6f" transform="translate(1172.900391 0)"/>
      <use xlink:href="#ArialMT-6d" transform="translate(1228.515625 0)"/>
      <use xlink:href="#ArialMT-61" transform="translate(1311.816406 0)"/>
      <use xlink:href="#ArialMT-6c" transform="translate(1367.431641 0)"/>
      <use xlink:href="#ArialMT-79" transform="translate(1389.648438 0)"/>
      <use xlink:href="#ArialMT-20" transform="translate(1439.648438 0)"/>
      <use xlink:href="#ArialMT-28" transform="translate(1467.431641 0)"/>
      <use xlink:href="#ArialMT-25" transform="translate(1500.732422 0)"/>
      <use xlink:href="#ArialMT-29" transform="translate(1589.648438 0)"/>
     </g>
    </g>
   </g>
   <g id="line2d_34">
    <path d="M 498.015682 244.08957 
L 501.411779 243.475628 
L 504.807876 242.871316 
L 508.203974 242.276329 
L 511.600071 241.690358 
L 514.996169 241.113096 
L 518.392266 240.544236 
L 521.788363 239.98347 
L 525.184461 239.430493 
L 528.580558 238.884995 
L 531.976655 238.34667 
L 535.372753 237.815211 
L 538.76885 237.290311 
L 542.164947 236.771661 
L 545.561045 236.258956 
L 548.957142 235.751887 
L 552.353239 235.250147 
L 555.749337 234.75343 
L 559.145434 234.261427 
L 562.541531 233.773832 
L 565.937629 233.290338 
L 569.333726 232.810636 
L 572.729823 232.334421 
L 576.125921 231.861384 
L 579.522018 231.391218 
L 582.918115 230.923617 
L 586.314213 230.458272 
L 589.71031 229.994877 
L 593.106407 229.533124 
L 596.502505 229.072706 
L 599.898602 228.613316 
L 603.294699 228.154647 
L 606.690797 227.696391 
L 610.086894 227.23824 
L 613.482991 226.779889 
L 616.879089 226.321029 
L 620.275186 225.861354 
L 623.671283 225.400555 
L 627.067381 224.938327 
L 630.463478 224.47436 
L 633.859575 224.008349 
L 637.255673 223.539986 
L 640.65177 223.068964 
L 644.047867 222.594975 
L 647.443965 222.117712 
L 650.840062 221.636869 
L 654.236159 221.152137 
L 657.632257 220.663209 
L 661.028354 220.169779 
L 664.424451 219.671539 
L 667.820549 219.168181 
L 671.216646 218.659399 
L 674.612743 218.144885 
L 678.008841 217.624332 
L 681.404938 217.097432 
L 684.801035 216.563879 
L 688.197133 216.023365 
L 691.59323 215.475583 
L 694.989327 214.920225 
L 698.385425 214.356985 
L 701.781522 213.785555 
L 705.177619 213.205628 
L 708.573717 212.616897 
L 711.969814 212.019054 
L 715.365911 211.411792 
L 718.762009 210.794804 
L 722.158106 210.167782 
L 725.554203 209.53042 
L 728.950301 208.88241 
L 732.346398 208.223444 
L 735.742495 207.553216 
L 739.138593 206.871419 
L 742.53469 206.177744 
L 745.930787 205.471886 
L 749.326885 204.753536 
L 752.722982 204.022387 
L 756.119079 203.278132 
L 759.515177 202.520464 
L 762.911274 201.749075 
L 766.307371 200.963659 
L 769.703469 200.163908 
L 773.099566 199.349514 
L 776.495663 198.520171 
L 779.891761 197.675571 
L 783.287858 196.815407 
L 786.683955 195.939372 
L 790.080053 195.047158 
L 793.47615 194.138459 
L 796.872247 193.212966 
L 800.268345 192.270373 
L 803.664442 191.310373 
L 807.060539 190.332658 
L 810.456637 189.336921 
L 813.852734 188.322854 
L 817.248831 187.290151 
L 820.644929 186.238504 
L 824.041026 185.167606 
L 827.437124 184.077149 
L 830.833221 182.966827 
L 834.229318 181.836332 
" clip-path="url(#p26b07209e8)" style="fill: none; stroke: #ef233c; stroke-width: 2; stroke-linecap: square"/>
   </g>
   <g id="patch_7">
    <path d="M 481.205 275.8 
L 481.205 29.04 
" style="fill: none; stroke: #000000; stroke-width: 0.8; stroke-linejoin: miter; stroke-linecap: square"/>
   </g>
   <g id="patch_8">
    <path d="M 481.205 275.8 
L 851.04 275.8 
" style="fill: none; stroke: #000000; stroke-width: 0.8; stroke-linejoin: miter; stroke-linecap: square"/>
   </g>
   <g id="text_40">
    <!-- Lycksele Municipality -->
    <g transform="translate(600.639688 23.04) scale(0.14 -0.14)">
     <use xlink:href="#ArialMT-4c"/>
     <use xlink:href="#ArialMT-79" transform="translate(51.865234 0)"/>
     <use xlink:href="#ArialMT-63" transform="translate(101.865234 0)"/>
     <use xlink:href="#ArialMT-6b" transform="translate(151.865234 0)"/>
     <use xlink:href="#ArialMT-73" transform="translate(201.865234 0)"/>
     <use xlink:href="#ArialMT-65" transform="translate(251.865234 0)"/>
     <use xlink:href="#ArialMT-6c" transform="translate(307.480469 0)"/>
     <use xlink:href="#ArialMT-65" transform="translate(329.697266 0)"/>
     <use xlink:href="#ArialMT-20" transform="translate(385.3125 0)"/>
     <use xlink:href="#ArialMT-4d" transform="translate(413.095703 0)"/>
     <use xlink:href="#ArialMT-75" transform="translate(496.396484 0)"/>
     <use xlink:href="#ArialMT-6e" transform="translate(552.011719 0)"/>
     <use xlink:href="#ArialMT-69" transform="translate(607.626953 0)"/>
     <use xlink:href="#ArialMT-63" transform="translate(629.84375 0)"/>
     <use xlink:href="#ArialMT-69" transform="translate(679.84375 0)"/>
     <use xlink:href="#ArialMT-70" transform="translate(702.060547 0)"/>
     <use xlink:href="#ArialMT-61" transform="translate(757.675781 0)"/>
     <use xlink:href="#ArialMT-6c" transform="translate(813.291016 0)"/>
     <use xlink:href="#ArialMT-69" transform="translate(835.507812 0)"/>
     <use xlink:href="#ArialMT-74" transform="translate(857.724609 0)"/>
     <use xlink:href="#ArialMT-79" transform="translate(885.507812 0)"/>
    </g>
   </g>
   <g id="legend_2">
    <g id="patch_9">
     <path d="M 546.110625 130.5405 
L 842.64 130.5405 
Q 845.04 130.5405 845.04 128.1405 
L 845.04 37.44 
Q 845.04 35.04 842.64 35.04 
L 546.110625 35.04 
Q 543.710625 35.04 543.710625 37.44 
L 543.710625 128.1405 
Q 543.710625 130.5405 546.110625 130.5405 
z
" style="fill: #ffffff; opacity: 0.8; stroke: #cccccc; stroke-linejoin: miter"/>
    </g>
    <g id="PathCollection_4">
     <g>
      <use xlink:href="#mec528e5ed7" x="560.510625" y="45.433125" style="stroke: #000000"/>
     </g>
    </g>
    <g id="text_41">
     <!-- Original Data -->
     <g transform="translate(582.110625 48.583125) scale(0.12 -0.12)">
      <use xlink:href="#ArialMT-4f"/>
      <use xlink:href="#ArialMT-72" transform="translate(77.783203 0)"/>
      <use xlink:href="#ArialMT-69" transform="translate(111.083984 0)"/>
      <use xlink:href="#ArialMT-67" transform="translate(133.300781 0)"/>
      <use xlink:href="#ArialMT-69" transform="translate(188.916016 0)"/>
      <use xlink:href="#ArialMT-6e" transform="translate(211.132812 0)"/>
      <use xlink:href="#ArialMT-61" transform="translate(266.748047 0)"/>
      <use xlink:href="#ArialMT-6c" transform="translate(322.363281 0)"/>
      <use xlink:href="#ArialMT-20" transform="translate(344.580078 0)"/>
      <use xlink:href="#ArialMT-44" transform="translate(372.363281 0)"/>
      <use xlink:href="#ArialMT-61" transform="translate(444.580078 0)"/>
      <use xlink:href="#ArialMT-74" transform="translate(500.195312 0)"/>
      <use xlink:href="#ArialMT-61" transform="translate(527.978516 0)"/>
     </g>
    </g>
    <g id="line2d_35">
     <path d="M 548.510625 61.68375 
L 560.510625 61.68375 
L 572.510625 61.68375 
" style="fill: none; stroke: #ef233c; stroke-width: 2; stroke-linecap: square"/>
    </g>
    <g id="text_42">
     <!-- 0.59$I^3$ + 0.60$I^2$ + 6.95$I$ - 2.25 -->
     <g transform="translate(582.110625 65.88375) scale(0.12 -0.12)">
      <defs>
       <path id="ArialMT-39" d="M 350 1059 
L 891 1109 
Q 959 728 1153 556 
Q 1347 384 1650 384 
Q 1909 384 2104 503 
Q 2300 622 2425 820 
Q 2550 1019 2634 1356 
Q 2719 1694 2719 2044 
Q 2719 2081 2716 2156 
Q 2547 1888 2255 1720 
Q 1963 1553 1622 1553 
Q 1053 1553 659 1965 
Q 266 2378 266 3053 
Q 266 3750 677 4175 
Q 1088 4600 1706 4600 
Q 2153 4600 2523 4359 
Q 2894 4119 3086 3673 
Q 3278 3228 3278 2384 
Q 3278 1506 3087 986 
Q 2897 466 2520 194 
Q 2144 -78 1638 -78 
Q 1100 -78 759 220 
Q 419 519 350 1059 
z
M 2653 3081 
Q 2653 3566 2395 3850 
Q 2138 4134 1775 4134 
Q 1400 4134 1122 3828 
Q 844 3522 844 3034 
Q 844 2597 1108 2323 
Q 1372 2050 1759 2050 
Q 2150 2050 2401 2323 
Q 2653 2597 2653 3081 
z
" transform="scale(0.015625)"/>
       <path id="DejaVuSans-Oblique-49" d="M 1081 4666 
L 1716 4666 
L 806 0 
L 172 0 
L 1081 4666 
z
" transform="scale(0.015625)"/>
       <path id="DejaVuSans-33" d="M 2597 2516 
Q 3050 2419 3304 2112 
Q 3559 1806 3559 1356 
Q 3559 666 3084 287 
Q 2609 -91 1734 -91 
Q 1441 -91 1130 -33 
Q 819 25 488 141 
L 488 750 
Q 750 597 1062 519 
Q 1375 441 1716 441 
Q 2309 441 2620 675 
Q 2931 909 2931 1356 
Q 2931 1769 2642 2001 
Q 2353 2234 1838 2234 
L 1294 2234 
L 1294 2753 
L 1863 2753 
Q 2328 2753 2575 2939 
Q 2822 3125 2822 3475 
Q 2822 3834 2567 4026 
Q 2313 4219 1838 4219 
Q 1578 4219 1281 4162 
Q 984 4106 628 3988 
L 628 4550 
Q 988 4650 1302 4700 
Q 1616 4750 1894 4750 
Q 2613 4750 3031 4423 
Q 3450 4097 3450 3541 
Q 3450 3153 3228 2886 
Q 3006 2619 2597 2516 
z
" transform="scale(0.015625)"/>
       <path id="ArialMT-2b" d="M 1603 741 
L 1603 1997 
L 356 1997 
L 356 2522 
L 1603 2522 
L 1603 3769 
L 2134 3769 
L 2134 2522 
L 3381 2522 
L 3381 1997 
L 2134 1997 
L 2134 741 
L 1603 741 
z
" transform="scale(0.015625)"/>
       <path id="DejaVuSans-32" d="M 1228 531 
L 3431 531 
L 3431 0 
L 469 0 
L 469 531 
Q 828 903 1448 1529 
Q 2069 2156 2228 2338 
Q 2531 2678 2651 2914 
Q 2772 3150 2772 3378 
Q 2772 3750 2511 3984 
Q 2250 4219 1831 4219 
Q 1534 4219 1204 4116 
Q 875 4013 500 3803 
L 500 4441 
Q 881 4594 1212 4672 
Q 1544 4750 1819 4750 
Q 2544 4750 2975 4387 
Q 3406 4025 3406 3419 
Q 3406 3131 3298 2873 
Q 3191 2616 2906 2266 
Q 2828 2175 2409 1742 
Q 1991 1309 1228 531 
z
" transform="scale(0.015625)"/>
       <path id="ArialMT-2d" d="M 203 1375 
L 203 1941 
L 1931 1941 
L 1931 1375 
L 203 1375 
z
" transform="scale(0.015625)"/>
      </defs>
      <use xlink:href="#ArialMT-30" transform="translate(0 0.765625)"/>
      <use xlink:href="#ArialMT-2e" transform="translate(55.615234 0.765625)"/>
      <use xlink:href="#ArialMT-35" transform="translate(83.398438 0.765625)"/>
      <use xlink:href="#ArialMT-39" transform="translate(137.263672 0.765625)"/>
      <use xlink:href="#DejaVuSans-Oblique-49" transform="translate(192.878906 0.765625)"/>
      <use xlink:href="#DejaVuSans-33" transform="translate(229.387865 39.046875) scale(0.7)"/>
      <use xlink:href="#ArialMT-20" transform="translate(276.658372 0.765625)"/>
      <use xlink:href="#ArialMT-2b" transform="translate(304.441576 0.765625)"/>
      <use xlink:href="#ArialMT-20" transform="translate(362.840013 0.765625)"/>
      <use xlink:href="#ArialMT-30" transform="translate(390.623216 0.765625)"/>
      <use xlink:href="#ArialMT-2e" transform="translate(446.238451 0.765625)"/>
      <use xlink:href="#ArialMT-36" transform="translate(474.021654 0.765625)"/>
      <use xlink:href="#ArialMT-30" transform="translate(529.636888 0.765625)"/>
      <use xlink:href="#DejaVuSans-Oblique-49" transform="translate(585.252122 0.765625)"/>
      <use xlink:href="#DejaVuSans-32" transform="translate(621.761081 39.046875) scale(0.7)"/>
      <use xlink:href="#ArialMT-20" transform="translate(669.031589 0.765625)"/>
      <use xlink:href="#ArialMT-2b" transform="translate(696.814792 0.765625)"/>
      <use xlink:href="#ArialMT-20" transform="translate(755.213229 0.765625)"/>
      <use xlink:href="#ArialMT-36" transform="translate(782.996432 0.765625)"/>
      <use xlink:href="#ArialMT-2e" transform="translate(838.611667 0.765625)"/>
      <use xlink:href="#ArialMT-39" transform="translate(866.39487 0.765625)"/>
      <use xlink:href="#ArialMT-35" transform="translate(922.010104 0.765625)"/>
      <use xlink:href="#DejaVuSans-Oblique-49" transform="translate(977.625339 0.765625)"/>
      <use xlink:href="#ArialMT-20" transform="translate(1007.117526 0.765625)"/>
      <use xlink:href="#ArialMT-2d" transform="translate(1034.900729 0.765625)"/>
      <use xlink:href="#ArialMT-20" transform="translate(1068.20151 0.765625)"/>
      <use xlink:href="#ArialMT-32" transform="translate(1095.984714 0.765625)"/>
      <use xlink:href="#ArialMT-2e" transform="translate(1151.599948 0.765625)"/>
      <use xlink:href="#ArialMT-32" transform="translate(1179.383151 0.765625)"/>
      <use xlink:href="#ArialMT-35" transform="translate(1234.998385 0.765625)"/>
     </g>
    </g>
    <g id="line2d_36">
     <path d="M 548.510625 100.099312 
L 560.510625 100.099312 
L 572.510625 100.099312 
" style="fill: none; stroke: #000000; stroke-opacity: 0; stroke-width: 1.5; stroke-linecap: square"/>
    </g>
    <g id="text_43">
     <!-- $R^2$: 0.48, RMSE: 8.26% -->
     <g transform="translate(582.110625 84.60375) scale(0.12 -0.12)">
      <defs>
       <path id="DejaVuSans-Oblique-52" d="M 1613 4147 
L 1294 2491 
L 2106 2491 
Q 2584 2491 2879 2755 
Q 3175 3019 3175 3444 
Q 3175 3784 2976 3965 
Q 2778 4147 2406 4147 
L 1613 4147 
z
M 2772 2241 
Q 2972 2194 3105 2009 
Q 3238 1825 3413 1275 
L 3809 0 
L 3144 0 
L 2778 1197 
Q 2638 1659 2453 1815 
Q 2269 1972 1888 1972 
L 1191 1972 
L 806 0 
L 172 0 
L 1081 4666 
L 2503 4666 
Q 3150 4666 3495 4373 
Q 3841 4081 3841 3531 
Q 3841 3044 3547 2687 
Q 3253 2331 2772 2241 
z
" transform="scale(0.015625)"/>
       <path id="ArialMT-3a" d="M 578 2678 
L 578 3319 
L 1219 3319 
L 1219 2678 
L 578 2678 
z
M 578 0 
L 578 641 
L 1219 641 
L 1219 0 
L 578 0 
z
" transform="scale(0.015625)"/>
       <path id="ArialMT-52" d="M 503 0 
L 503 4581 
L 2534 4581 
Q 3147 4581 3465 4457 
Q 3784 4334 3975 4021 
Q 4166 3709 4166 3331 
Q 4166 2844 3850 2509 
Q 3534 2175 2875 2084 
Q 3116 1969 3241 1856 
Q 3506 1613 3744 1247 
L 4541 0 
L 3778 0 
L 3172 953 
Q 2906 1366 2734 1584 
Q 2563 1803 2427 1890 
Q 2291 1978 2150 2013 
Q 2047 2034 1813 2034 
L 1109 2034 
L 1109 0 
L 503 0 
z
M 1109 2559 
L 2413 2559 
Q 2828 2559 3062 2645 
Q 3297 2731 3419 2920 
Q 3541 3109 3541 3331 
Q 3541 3656 3305 3865 
Q 3069 4075 2559 4075 
L 1109 4075 
L 1109 2559 
z
" transform="scale(0.015625)"/>
      </defs>
      <use xlink:href="#DejaVuSans-Oblique-52" transform="translate(0 0.765625)"/>
      <use xlink:href="#DejaVuSans-32" transform="translate(76.499193 39.046875) scale(0.7)"/>
      <use xlink:href="#ArialMT-3a" transform="translate(123.769701 0.765625)"/>
      <use xlink:href="#ArialMT-20" transform="translate(151.552904 0.765625)"/>
      <use xlink:href="#ArialMT-30" transform="translate(179.336107 0.765625)"/>
      <use xlink:href="#ArialMT-2e" transform="translate(234.951341 0.765625)"/>
      <use xlink:href="#ArialMT-34" transform="translate(262.734544 0.765625)"/>
      <use xlink:href="#ArialMT-38" transform="translate(318.349779 0.765625)"/>
      <use xlink:href="#ArialMT-2c" transform="translate(373.965013 0.765625)"/>
      <use xlink:href="#ArialMT-20" transform="translate(401.748216 0.765625)"/>
      <use xlink:href="#ArialMT-52" transform="translate(429.531419 0.765625)"/>
      <use xlink:href="#ArialMT-4d" transform="translate(501.748216 0.765625)"/>
      <use xlink:href="#ArialMT-53" transform="translate(585.048997 0.765625)"/>
      <use xlink:href="#ArialMT-45" transform="translate(651.748216 0.765625)"/>
      <use xlink:href="#ArialMT-3a" transform="translate(718.447435 0.765625)"/>
      <use xlink:href="#ArialMT-20" transform="translate(746.230638 0.765625)"/>
      <use xlink:href="#ArialMT-38" transform="translate(774.013841 0.765625)"/>
      <use xlink:href="#ArialMT-2e" transform="translate(829.629076 0.765625)"/>
      <use xlink:href="#ArialMT-32" transform="translate(857.412279 0.765625)"/>
      <use xlink:href="#ArialMT-36" transform="translate(913.027513 0.765625)"/>
      <use xlink:href="#ArialMT-25" transform="translate(968.642747 0.765625)"/>
     </g>
     <!-- p: 0.02289 -->
     <g transform="translate(582.110625 97.33875) scale(0.12 -0.12)">
      <use xlink:href="#ArialMT-70"/>
      <use xlink:href="#ArialMT-3a" transform="translate(55.615234 0)"/>
      <use xlink:href="#ArialMT-20" transform="translate(83.398438 0)"/>
      <use xlink:href="#ArialMT-30" transform="translate(111.181641 0)"/>
      <use xlink:href="#ArialMT-2e" transform="translate(166.796875 0)"/>
      <use xlink:href="#ArialMT-30" transform="translate(194.580078 0)"/>
      <use xlink:href="#ArialMT-32" transform="translate(250.195312 0)"/>
      <use xlink:href="#ArialMT-32" transform="translate(305.810547 0)"/>
      <use xlink:href="#ArialMT-38" transform="translate(361.425781 0)"/>
      <use xlink:href="#ArialMT-39" transform="translate(417.041016 0)"/>
     </g>
     <!-- Durbin–Watson: 2.00 (No autocorrelation) -->
     <g transform="translate(582.110625 110.2065) scale(0.12 -0.12)">
      <defs>
       <path id="ArialMT-2013" d="M -13 1431 
L -13 1884 
L 3547 1884 
L 3547 1431 
L -13 1431 
z
" transform="scale(0.015625)"/>
       <path id="ArialMT-4e" d="M 488 0 
L 488 4581 
L 1109 4581 
L 3516 984 
L 3516 4581 
L 4097 4581 
L 4097 0 
L 3475 0 
L 1069 3600 
L 1069 0 
L 488 0 
z
" transform="scale(0.015625)"/>
      </defs>
      <use xlink:href="#ArialMT-44"/>
      <use xlink:href="#ArialMT-75" transform="translate(72.216797 0)"/>
      <use xlink:href="#ArialMT-72" transform="translate(127.832031 0)"/>
      <use xlink:href="#ArialMT-62" transform="translate(161.132812 0)"/>
      <use xlink:href="#ArialMT-69" transform="translate(216.748047 0)"/>
      <use xlink:href="#ArialMT-6e" transform="translate(238.964844 0)"/>
      <use xlink:href="#ArialMT-2013" transform="translate(294.580078 0)"/>
      <use xlink:href="#ArialMT-57" transform="translate(350.195312 0)"/>
      <use xlink:href="#ArialMT-61" transform="translate(440.830078 0)"/>
      <use xlink:href="#ArialMT-74" transform="translate(496.445312 0)"/>
      <use xlink:href="#ArialMT-73" transform="translate(524.228516 0)"/>
      <use xlink:href="#ArialMT-6f" transform="translate(574.228516 0)"/>
      <use xlink:href="#ArialMT-6e" transform="translate(629.84375 0)"/>
      <use xlink:href="#ArialMT-3a" transform="translate(685.458984 0)"/>
      <use xlink:href="#ArialMT-20" transform="translate(713.242188 0)"/>
      <use xlink:href="#ArialMT-32" transform="translate(741.025391 0)"/>
      <use xlink:href="#ArialMT-2e" transform="translate(796.640625 0)"/>
      <use xlink:href="#ArialMT-30" transform="translate(824.423828 0)"/>
      <use xlink:href="#ArialMT-30" transform="translate(880.039062 0)"/>
      <use xlink:href="#ArialMT-20" transform="translate(935.654297 0)"/>
      <use xlink:href="#ArialMT-28" transform="translate(963.4375 0)"/>
      <use xlink:href="#ArialMT-4e" transform="translate(996.738281 0)"/>
      <use xlink:href="#ArialMT-6f" transform="translate(1068.955078 0)"/>
      <use xlink:href="#ArialMT-20" transform="translate(1124.570312 0)"/>
      <use xlink:href="#ArialMT-61" transform="translate(1152.353516 0)"/>
      <use xlink:href="#ArialMT-75" transform="translate(1207.96875 0)"/>
      <use xlink:href="#ArialMT-74" transform="translate(1263.583984 0)"/>
      <use xlink:href="#ArialMT-6f" transform="translate(1291.367188 0)"/>
      <use xlink:href="#ArialMT-63" transform="translate(1346.982422 0)"/>
      <use xlink:href="#ArialMT-6f" transform="translate(1396.982422 0)"/>
      <use xlink:href="#ArialMT-72" transform="translate(1452.597656 0)"/>
      <use xlink:href="#ArialMT-72" transform="translate(1485.898438 0)"/>
      <use xlink:href="#ArialMT-65" transform="translate(1519.199219 0)"/>
      <use xlink:href="#ArialMT-6c" transform="translate(1574.814453 0)"/>
      <use xlink:href="#ArialMT-61" transform="translate(1597.03125 0)"/>
      <use xlink:href="#ArialMT-74" transform="translate(1652.646484 0)"/>
      <use xlink:href="#ArialMT-69" transform="translate(1680.429688 0)"/>
      <use xlink:href="#ArialMT-6f" transform="translate(1702.646484 0)"/>
      <use xlink:href="#ArialMT-6e" transform="translate(1758.261719 0)"/>
      <use xlink:href="#ArialMT-29" transform="translate(1813.876953 0)"/>
     </g>
     <!-- Breusch–Pagan p: 0.697 (No heteroskedasticity) -->
     <g transform="translate(582.110625 123.214875) scale(0.12 -0.12)">
      <defs>
       <path id="ArialMT-42" d="M 469 0 
L 469 4581 
L 2188 4581 
Q 2713 4581 3030 4442 
Q 3347 4303 3526 4014 
Q 3706 3725 3706 3409 
Q 3706 3116 3547 2856 
Q 3388 2597 3066 2438 
Q 3481 2316 3704 2022 
Q 3928 1728 3928 1328 
Q 3928 1006 3792 729 
Q 3656 453 3456 303 
Q 3256 153 2954 76 
Q 2653 0 2216 0 
L 469 0 
z
M 1075 2656 
L 2066 2656 
Q 2469 2656 2644 2709 
Q 2875 2778 2992 2937 
Q 3109 3097 3109 3338 
Q 3109 3566 3000 3739 
Q 2891 3913 2687 3977 
Q 2484 4041 1991 4041 
L 1075 4041 
L 1075 2656 
z
M 1075 541 
L 2216 541 
Q 2509 541 2628 563 
Q 2838 600 2978 687 
Q 3119 775 3209 942 
Q 3300 1109 3300 1328 
Q 3300 1584 3169 1773 
Q 3038 1963 2805 2039 
Q 2572 2116 2134 2116 
L 1075 2116 
L 1075 541 
z
" transform="scale(0.015625)"/>
      </defs>
      <use xlink:href="#ArialMT-42"/>
      <use xlink:href="#ArialMT-72" transform="translate(66.699219 0)"/>
      <use xlink:href="#ArialMT-65" transform="translate(100 0)"/>
      <use xlink:href="#ArialMT-75" transform="translate(155.615234 0)"/>
      <use xlink:href="#ArialMT-73" transform="translate(211.230469 0)"/>
      <use xlink:href="#ArialMT-63" transform="translate(261.230469 0)"/>
      <use xlink:href="#ArialMT-68" transform="translate(311.230469 0)"/>
      <use xlink:href="#ArialMT-2013" transform="translate(366.845703 0)"/>
      <use xlink:href="#ArialMT-50" transform="translate(422.460938 0)"/>
      <use xlink:href="#ArialMT-61" transform="translate(489.160156 0)"/>
      <use xlink:href="#ArialMT-67" transform="translate(544.775391 0)"/>
      <use xlink:href="#ArialMT-61" transform="translate(600.390625 0)"/>
      <use xlink:href="#ArialMT-6e" transform="translate(656.005859 0)"/>
      <use xlink:href="#ArialMT-20" transform="translate(711.621094 0)"/>
      <use xlink:href="#ArialMT-70" transform="translate(739.404297 0)"/>
      <use xlink:href="#ArialMT-3a" transform="translate(795.019531 0)"/>
      <use xlink:href="#ArialMT-20" transform="translate(822.802734 0)"/>
      <use xlink:href="#ArialMT-30" transform="translate(850.585938 0)"/>
      <use xlink:href="#ArialMT-2e" transform="translate(906.201172 0)"/>
      <use xlink:href="#ArialMT-36" transform="translate(933.984375 0)"/>
      <use xlink:href="#ArialMT-39" transform="translate(989.599609 0)"/>
      <use xlink:href="#ArialMT-37" transform="translate(1045.214844 0)"/>
      <use xlink:href="#ArialMT-20" transform="translate(1100.830078 0)"/>
      <use xlink:href="#ArialMT-28" transform="translate(1128.613281 0)"/>
      <use xlink:href="#ArialMT-4e" transform="translate(1161.914062 0)"/>
      <use xlink:href="#ArialMT-6f" transform="translate(1234.130859 0)"/>
      <use xlink:href="#ArialMT-20" transform="translate(1289.746094 0)"/>
      <use xlink:href="#ArialMT-68" transform="translate(1317.529297 0)"/>
      <use xlink:href="#ArialMT-65" transform="translate(1373.144531 0)"/>
      <use xlink:href="#ArialMT-74" transform="translate(1428.759766 0)"/>
      <use xlink:href="#ArialMT-65" transform="translate(1456.542969 0)"/>
      <use xlink:href="#ArialMT-72" transform="translate(1512.158203 0)"/>
      <use xlink:href="#ArialMT-6f" transform="translate(1545.458984 0)"/>
      <use xlink:href="#ArialMT-73" transform="translate(1601.074219 0)"/>
      <use xlink:href="#ArialMT-6b" transform="translate(1651.074219 0)"/>
      <use xlink:href="#ArialMT-65" transform="translate(1701.074219 0)"/>
      <use xlink:href="#ArialMT-64" transform="translate(1756.689453 0)"/>
      <use xlink:href="#ArialMT-61" transform="translate(1812.304688 0)"/>
      <use xlink:href="#ArialMT-73" transform="translate(1867.919922 0)"/>
      <use xlink:href="#ArialMT-74" transform="translate(1917.919922 0)"/>
      <use xlink:href="#ArialMT-69" transform="translate(1945.703125 0)"/>
      <use xlink:href="#ArialMT-63" transform="translate(1967.919922 0)"/>
      <use xlink:href="#ArialMT-69" transform="translate(2017.919922 0)"/>
      <use xlink:href="#ArialMT-74" transform="translate(2040.136719 0)"/>
      <use xlink:href="#ArialMT-79" transform="translate(2067.919922 0)"/>
      <use xlink:href="#ArialMT-29" transform="translate(2117.919922 0)"/>
     </g>
    </g>
   </g>
  </g>
 </g>
 <defs>
  <clipPath id="p20aef270b8">
   <rect x="53.72" y="29.04" width="369.835" height="246.76"/>
  </clipPath>
  <clipPath id="p26b07209e8">
   <rect x="481.205" y="29.04" width="369.835" height="246.76"/>
  </clipPath>
 </defs>
</svg>
